<svg viewBox="0 0 558.2 119.24" xmlns="http://www.w3.org/2000/svg" xmlns:xlink="http://www.w3.org/1999/xlink"><defs><radialGradient id="radial-gradient" cx="59.35" cy="59.62" gradientUnits="userSpaceOnUse" r="59.49"><stop offset="0" stop-color="#fd0"/><stop offset=".39" stop-color="#ffdb00"/><stop offset=".52" stop-color="#fed401"/><stop offset=".62" stop-color="#fcc902"/><stop offset=".7" stop-color="#fab803"/><stop offset=".77" stop-color="#f7a205"/><stop offset=".83" stop-color="#f38608"/><stop offset=".89" stop-color="#ef660b"/><stop offset=".94" stop-color="#ea400e"/><stop offset=".98" stop-color="#e41711"/><stop offset="1" stop-color="#e20613"/></radialGradient></defs><path d="m94.2 24.64c4-7-.6-15.06-.6-15.06 9.67 9.09 11.94 28.66 10.93 32.87s-15.53 20.24-15.53 20.24c12-17.69 5.2-38.05 5.2-38.05zm-69.05 40.69s-8.06 20.07-7.54 24.37 9.43 21.87 21.66 27c0 0-7.15-6-5.78-13.92-.01.04-13.49-16.73-8.34-37.45zm56.72 13.2s21.17-4.42 24.46-7.25 13-20 10.48-33c0 0-1 9.27-8.37 12.53 0-.01-6.44 20.5-26.57 27.73zm-53.22-35.39s-18.32 11.49-20.43 15.28-5.22 23.24 1.63 34.58c0 0-2.26-9 3.5-14.66.01.02-1.03-21.46 15.3-35.2zm38.13 44s19.73 8.86 24 8.51 22.23-8.55 27.88-20.56c0 0-6.27 6.9-14.14 5.22.05.03-17.25 12.81-37.74 6.85zm-22.25-59.9s-21.53-1.47-25.53.36-17.86 15.73-19 28.95c0 0 3.49-8.65 11.45-9.8 0 0 11.79-17.99 33.08-19.51zm5 58s10.75 18.77 14.45 21 23 6.15 34.64-.24c0 0-9.13 1.89-14.51-4.09-.03.09-21.53.22-34.61-16.64zm17.19-61.53s-16.6-13.87-20.85-14.71-23.71 2.22-32.4 12.25c0 0 7.91-4.94 15-1.2.02 0 20.13-7.62 38.25 3.66zm-30.09 49.87s-2.33 21.5-.63 25.5 15 18.5 28.17 20.17c0 0-8.5-3.83-9.33-11.83-.04-.01-17.54-12.51-18.21-33.84zm50.11-39.68s-5.27-21-8.22-24.15-20.52-12.15-33.41-9.14c0 0 9.3.65 12.86 7.86.03 0 20.75 5.65 28.77 25.43z" fill="url(#radial-gradient)"/><g fill="#fff"><path d="m168.19 9a37 37 0 0 1 9 1 18.86 18.86 0 0 1  6.81 3.16 14.2 14.2 0 0 1  4.42 5.66 21.08 21.08 0 0 1  1.58 8.56q0 7.78-4 11.91a20.43 20.43 0 0 1 -10.8 5.54l13.68 22.41a2.83 2.83 0 0 0 1.7 1.42 7.64 7.64 0 0 0  1.8.24v2.1h-19.25v-2.11a3.37 3.37 0 0 0 1.59-.35 1.06 1.06 0 0 0  .67-.94 3 3 0 0 0 -.41-1.36q-.41-.77-1.23-2.06l-11.32-18.4h-14.71v21a1.91 1.91 0 0 0  .67 1.59 4 4 0 0 0  2.42.53v2.1h-17.81v-2.11q3 0 3-2.12v-53.55q0-2.12-3-2.12v-2.1zm-2.68 27.6a24.73 24.73 0 0 0 6.17-.65 10.18 10.18 0 0 0  3.91-1.83 6.68 6.68 0 0 0  2.06-2.77 10.12 10.12 0 0 0  0-7 6.69 6.69 0 0 0 -2.06-2.77 10.24 10.24 0 0 0 -3.91-1.83 24.8 24.8 0 0 0 -6.17-.65h-17.8v17.48z"/><path d="m201.22 68.89a3 3 0 0 0 2.11-1.53 26.54 26.54 0 0 0  1.49-2.95l19-45.88q.72-1.53 1.29-2.83a5.78 5.78 0 0 0  .57-2.24 1.83 1.83 0 0 0 -.68-1.66 5.71 5.71 0 0 0 -1.54-.71v-2.09h17.39v2.1a7.81 7.81 0 0 0 -1.44.65 1.81 1.81 0 0 0 -.72 1.71 5.22 5.22 0 0 0  .36 1.89q.36.95 1.08 2.48l21.4 48a3.92 3.92 0 0 0 1.39 1.89 20.12 20.12 0 0 0  2 1.18v2.1h-18.13v-2.11a2.21 2.21 0 0 0 1-.35 1.15 1.15 0 0 0  .62-1.06 8.18 8.18 0 0 0 -.82-3.07l-3.91-8.73h-25.08l-3.7 8.37a11 11 0 0 0 -1 3.54q0 1.3 2 1.3v2.11h-14.68zm38.78-21.89-8.64-22-9.67 22z"/><path d="m277 68.89q2 0 2-2.12v-53.55q0-2.12-2-2.12v-2.1h17.59v2.1c-.55 0-.82.39-.82 1.18q0 .95 2.06 3.3l29.53 35.15v-37.51q0-2.12-2.67-2.12v-2.1h15.54v2.1q-2 0-2 2.12v53.55q0 2.12 2 2.12v2.11h-16.65v-2.11q1.34 0 1.34-1.06 0-.82-1.65-2.71l-31.37-37.51v39.16q0 2.12 2.37 2.12v2.11h-15.27z"/><path d="m405.84 28.08-2.06-.71a5.07 5.07 0 0 0  .22-1.37 4 4 0 0 0 -1.9-3.18 17.66 17.66 0 0 0 -4.83-2.42 34.09 34.09 0 0 0 -6.38-1.47 48.48 48.48 0 0 0 -6.53-.47 24 24 0 0 0 -7.56 1.24 18.37 18.37 0 0 0 -11.42 10.56 25 25 0 0 0 -1.8 10 25.11 25.11 0 0 0  1.8 10 18.26 18.26 0 0 0  11.42 10.62 24 24 0 0 0  7.56 1.24 45.36 45.36 0 0 0  10.54-1.12 60.2 60.2 0 0 0  8-2.42v-10.21h-13.21a3 3 0 0 0 -2.16.71 5.15 5.15 0 0 0 -.93 3.07h-1.85v-15.15h1.85a3.63 3.63 0 0 0  .93 2.54 3.63 3.63 0 0 0  2.16.53h25.72v2.12a5.9 5.9 0 0 0 -2.57.83 2.78 2.78 0 0 0 -.51 2v13.38q0 1.18.62 1.53l1.44.83v1.89a36 36 0 0 1 -7.15 4.48 43.46 43.46 0 0 1 -7.61 2.77 40.34 40.34 0 0 1 -7.72 1.24q-3.86.23-7.56.24a39.59 39.59 0 0 1 -13.12-2.06 27.33 27.33 0 0 1 -10.13-6.13 27.77 27.77 0 0 1 -6.53-9.91 35.78 35.78 0 0 1 -2.33-13.28 35.78 35.78 0 0 1  2.31-13.27 27.72 27.72 0 0 1  16.67-16.28 37.67 37.67 0 0 1  13.12-2.18 51 51 0 0 1  8.66.73q4.11.71 7.3 1.59t5.3 1.65a11.55 11.55 0 0 0 2.62.77 2.05 2.05 0 0 0  1.44-.47 9.52 9.52 0 0 1  1-.83l1.23.83z"/><path d="m481.66 21.71a2.27 2.27 0 0 0 -.87-1.95 5.29 5.29 0 0 0 -3-.65h-33.37v14.63h20.16a6.47 6.47 0 0 0 3.19-.65q1.13-.65 1.13-3.36h1.85v18.4h-1.85q0-2.71-1.13-3.48a5.66 5.66 0 0 0 -3.19-.77h-20.16v16.29h34.36a3.77 3.77 0 0 0 2.52-.83 2.78 2.78 0 0 0  1-2.24h1.85v16.16h-1.85q0-1.77-1-2a11 11 0 0 0 -2.52-.24h-47.94v-2.13a1.83 1.83 0 0 0 1.29-.53 2.08 2.08 0 0 0  .57-1.59v-53.55a2.08 2.08 0 0 0 -.57-1.59 1.83 1.83 0 0 0 -1.29-.53v-2.1h46.91a4.63 4.63 0 0 0 3-.77 2.61 2.61 0 0 0  .87-2.06h1.85v15.54z"/><path d="m534 9a37 37 0 0 1 9 1 18.86 18.86 0 0 1  6.89 3.18 14.19 14.19 0 0 1  4.42 5.66 21.08 21.08 0 0 1  1.54 8.55q0 7.78-4 11.91a20.42 20.42 0 0 1 -10.85 5.53l13.68 22.41a2.83 2.83 0 0 0 1.7 1.42 7.64 7.64 0 0 0  1.8.24v2.1h-19.18v-2.11a3.37 3.37 0 0 0 1.59-.35 1.06 1.06 0 0 0  .67-.94 3 3 0 0 0 -.41-1.36q-.41-.77-1.23-2.06l-11.32-18.4h-14.75v21a1.91 1.91 0 0 0  .67 1.59 4 4 0 0 0  2.42.53v2.1h-17.8v-2.11q3 0 3-2.12v-53.55q0-2.12-3-2.12v-2.1zm-2.67 27.6a24.74 24.74 0 0 0 6.17-.65 10.19 10.19 0 0 0  3.91-1.83 6.68 6.68 0 0 0  2.06-2.77 10.12 10.12 0 0 0  0-7 6.69 6.69 0 0 0 -2.06-2.77 10.24 10.24 0 0 0 -3.91-1.83 24.81 24.81 0 0 0 -6.17-.65h-17.8v17.48z"/><path d="m138.36 110.62a.76.76 0 0 0  .24.61.82.82 0 0 0  .55.2v.81h-6.15v-.81q.86 0 .87-.81v-20.48q0-.81-.87-.81v-.81h6.14v.81a.82.82 0 0 0 -.55.2.76.76 0 0 0 -.24.61v8.57l8.14-7.35q.55-.54.87-.88a.94.94 0 0 0  .31-.56.53.53 0 0 0 -.18-.45.66.66 0 0 0 -.41-.14v-.81h8.26v.81a2.08 2.08 0 0 0 -1.42.68l-9 8.25 8.26 11a10.89 10.89 0 0 0 1.2 1.33 3.76 3.76 0 0 0  1.36.88v.81h-7.28v-.81c.34 0 .51-.11.51-.32a2.67 2.67 0 0 0 -.55-1l-6.73-8.89-3.3 2.93z"/><path d="m179.19 93.39a.87.87 0 0 0 -.33-.74 2 2 0 0 0 -1.16-.25h-12.7v5.6h7.71a2.48 2.48 0 0 0 1.22-.25q.43-.25.43-1.29h.64v7h-.71c0-.69-.14-1.13-.43-1.33a2.17 2.17 0 0 0 -1.22-.29h-7.64v6.22h13.14a1.44 1.44 0 0 0 1-.32 1.06 1.06 0 0 0  .37-.86h.71v6.18h-.71q0-.68-.37-.77a4.19 4.19 0 0 0 -1-.09h-18.38v-.81a.7.7 0 0 0  .49-.2.8.8 0 0 0  .22-.61v-20.44a.8.8 0 0 0 -.22-.61.7.7 0 0 0 -.49-.2v-.81h17.94a1.77 1.77 0 0 0 1.16-.29 1 1 0 0 0  .33-.79h.71v6z"/><path d="m205.43 93.39a.87.87 0 0 0 -.33-.74 2 2 0 0 0 -1.16-.25h-12.75v5.6h7.71a2.48 2.48 0 0 0 1.22-.25q.43-.25.43-1.29h.71v7h-.71c0-.69-.14-1.13-.43-1.33a2.17 2.17 0 0 0 -1.22-.29h-7.71v6.22h13.14a1.44 1.44 0 0 0 1-.32 1.06 1.06 0 0 0  .37-.86h.71v6.18h-.71q0-.68-.37-.77a4.19 4.19 0 0 0 -1-.09h-18.33v-.81a.7.7 0 0 0  .49-.2.8.8 0 0 0  .22-.61v-20.44a.8.8 0 0 0 -.22-.61.7.7 0 0 0 -.49-.2v-.81h17.94a1.77 1.77 0 0 0 1.16-.29 1 1 0 0 0  .33-.79h.71v6z"/><path d="m211.85 112.24v-.81q1.46 0 1.46-.81v-20.48q0-.81-1.46-.81v-.81h13.85a9.8 9.8 0 0 1 5.94 1.6q2.16 1.6 2.16 5.44t-2.16 5.44a9.8 9.8 0 0 1 -5.94 1.6h-7.91v8q0 .81 1.26.81v.81zm14.32-13.8a4.06 4.06 0 0 0 2.22-.59 3.32 3.32 0 0 0  0-4.6 4.07 4.07 0 0 0 -2.22-.59h-8.38v5.77z"/><path d="m261.34 110.62q0 .81.87.81v.81h-6.06v-.81a.7.7 0 0 0  .49-.2.8.8 0 0 0  .22-.61v-18h-6.49a1.22 1.22 0 0 0 -.69.23 1 1 0 0 0 -.33.86h-.71v-6.28h.71a1 1 0 0 0  .33.86 1.22 1.22 0 0 0  .69.23h17.47a1.22 1.22 0 0 0  .69-.23 1 1 0 0 0  .33-.86h.71v6.32h-.71a1 1 0 0 0 -.33-.86 1.22 1.22 0 0 0 -.69-.23h-6.49z"/><path d="m292.77 90.14c0-.54-.29-.81-.87-.81v-.81h6.1v.81a.7.7 0 0 0 -.49.2.8.8 0 0 0 -.22.61v20.48a.8.8 0 0 0  .22.61.7.7 0 0 0  .49.2v.81h-6.06v-.81c.58 0 .87-.27.87-.81v-8.48h-12.71v8.48a.8.8 0 0 0  .22.61.7.7 0 0 0  .49.2v.81h-5.94v-.81q.75 0 .75-.81v-20.48q0-.81-.75-.81v-.81h5.94v.81a.7.7 0 0 0 -.49.2.8.8 0 0 0 -.22.61v7.67h12.67z"/><path d="m324.56 93.39a.87.87 0 0 0 -.33-.74 2 2 0 0 0 -1.16-.25h-12.75v5.6h7.68a2.48 2.48 0 0 0 1.22-.25q.43-.25.43-1.29h.71v7h-.71c0-.69-.14-1.13-.43-1.33a2.17 2.17 0 0 0 -1.22-.29h-7.71v6.22h13.14a1.44 1.44 0 0 0 1-.32 1.06 1.06 0 0 0  .37-.86h.71v6.18h-.71q0-.68-.37-.77a4.18 4.18 0 0 0 -1-.09h-18.31v-.81a.7.7 0 0 0  .49-.2.8.8 0 0 0  .22-.61v-20.44a.8.8 0 0 0 -.22-.61.7.7 0 0 0 -.49-.2v-.81h17.94a1.77 1.77 0 0 0 1.16-.29 1 1 0 0 0  .33-.79h.71v6z"/><path d="m343 112.24v-.81q1.46 0 1.46-.81v-20.48q0-.81-1.46-.81v-.81h13.85a9.8 9.8 0 0 1 5.94 1.6q2.16 1.6 2.16 5.44t-2.19 5.44a9.79 9.79 0 0 1 -5.94 1.6h-7.91v8q0 .81 1.26.81v.81zm14.32-13.8a4.06 4.06 0 0 0 2.22-.59 3.32 3.32 0 0 0  0-4.6 4.07 4.07 0 0 0 -2.22-.59h-8.38v5.77z"/><path d="m381.52 88.24a13.93 13.93 0 0 1 4.41.74 13 13 0 0 1  4.07 2.24 11.85 11.85 0 0 1  0 18.31 12 12 0 0 1 -4.09 2.17 14.7 14.7 0 0 1 -8.81 0 12 12 0 0 1 -4.09-2.17 11.85 11.85 0 0 1  0-18.31 13 13 0 0 1  4.11-2.22 13.94 13.94 0 0 1  4.4-.76zm0 4.15a9 9 0 0 0 -5.69 2.1 7.82 7.82 0 0 0 -1.95 2.5 8 8 0 0 0  0 6.77 7.82 7.82 0 0 0  1.95 2.5 8.81 8.81 0 0 0  11.37 0 7.85 7.85 0 0 0  1.95-2.5 8 8 0 0 0  0-6.77 7.85 7.85 0 0 0 -1.95-2.5 9 9 0 0 0 -5.68-2.1z"/><path d="m404.15 89.33q-.59 0-.59.86a3.07 3.07 0 0 0  .06.54 9.46 9.46 0 0 0  .3 1l4.21 12.54h.08l4.17-12.72a8.15 8.15 0 0 0  .26-.88 2.63 2.63 0 0 0  .06-.52q0-.86-.51-.86v-.81h6.73v.81a.41.41 0 0 0 -.39.23 1 1 0 0 0 -.12.5 5.33 5.33 0 0 0  .39 1.53l4.2 12.75h.08l4.25-13a3.29 3.29 0 0 0  .27-1.22.82.82 0 0 0 -.2-.52.59.59 0 0 0 -.47-.25v-.81h5.82v.81c-.29 0-.51.18-.65.54s-.31.81-.49 1.35l-5.66 17.23-.41 1.26a3 3 0 0 0 -.18.9.88.88 0 0 0  .2.56.66.66 0 0 0  .55.25v.81h-6.22v-.81a2.24 2.24 0 0 0  .49-.27.57.57 0 0 0  .26-.5 2.83 2.83 0 0 0 -.14-.81q-.14-.45-.45-1.26l-4.52-13.31h-.08l-4.29 13a10.24 10.24 0 0 0 -.59 2.21c0 .48.17.78.51.9v.81h-6.08v-.81a.94.94 0 0 0  .47-.14.48.48 0 0 0  .24-.45 2.41 2.41 0 0 0 -.14-.77l-.3-.86-6.27-18.55a5.3 5.3 0 0 0 -.33-.83.82.82 0 0 0 -.57-.43v-.81h6.1z"/><path d="m456.78 93.39a.87.87 0 0 0 -.33-.74 2 2 0 0 0 -1.16-.25h-12.75v5.6h7.71a2.48 2.48 0 0 0 1.22-.25q.43-.25.43-1.29h.71v7h-.71c0-.69-.14-1.13-.43-1.33a2.17 2.17 0 0 0 -1.22-.29h-7.71v6.22h13.14a1.44 1.44 0 0 0 1-.32 1.06 1.06 0 0 0  .37-.86h.71v6.18h-.76q0-.68-.37-.77a4.18 4.18 0 0 0 -1-.09h-18.28v-.81a.7.7 0 0 0  .49-.2.8.8 0 0 0  .22-.61v-20.44a.8.8 0 0 0 -.22-.61.7.7 0 0 0 -.49-.2v-.81h17.94a1.77 1.77 0 0 0 1.16-.29 1 1 0 0 0  .33-.79h.71v6z"/><path d="m476.81 88.52a14.12 14.12 0 0 1 3.42.38 7.21 7.21 0 0 1  2.64 1.22 5.42 5.42 0 0 1  1.69 2.17 8.06 8.06 0 0 1  .59 3.27 6.28 6.28 0 0 1 -1.53 4.56 7.8 7.8 0 0 1 -4.13 2.12l5.23 8.57a1.08 1.08 0 0 0  .65.54 2.9 2.9 0 0 0  .69.09v.81h-7.36v-.81a1.29 1.29 0 0 0  .61-.14.4.4 0 0 0  .26-.36 1.13 1.13 0 0 0 -.16-.52q-.16-.29-.47-.79l-4.33-7h-5.61v8a .73.73 0 0 0  .26.61 1.55 1.55 0 0 0  .92.2v.81h-6.81v-.81q1.14 0 1.14-.81v-20.49q0-.81-1.14-.81v-.81zm-1 10.55a9.46 9.46 0 0 0 2.36-.25 3.92 3.92 0 0 0  1.5-.7 2.56 2.56 0 0 0  .79-1.06 3.86 3.86 0 0 0  0-2.66 2.56 2.56 0 0 0 -.79-1.06 3.92 3.92 0 0 0 -1.5-.7 9.46 9.46 0 0 0 -2.36-.25h-6.81v6.68z"/><path d="m515.91 88.24a13.93 13.93 0 0 1 4.41.74 13 13 0 0 1  4.09 2.23 11.85 11.85 0 0 1  0 18.31 12 12 0 0 1 -4.09 2.17 14.7 14.7 0 0 1 -8.81 0 12 12 0 0 1 -4.09-2.17 11.85 11.85 0 0 1  0-18.31 13 13 0 0 1  4.09-2.21 13.94 13.94 0 0 1  4.4-.76zm0 4.15a9 9 0 0 0 -5.69 2.1 7.82 7.82 0 0 0 -1.95 2.5 8 8 0 0 0  0 6.77 7.82 7.82 0 0 0  1.95 2.5 8.81 8.81 0 0 0  11.37 0 7.85 7.85 0 0 0  1.95-2.5 8 8 0 0 0  0-6.77 7.85 7.85 0 0 0 -1.95-2.5 9 9 0 0 0 -5.68-2.1z"/><path d="m534.8 111.43q.75 0 .75-.81v-20.48q0-.81-.75-.81v-.81h6.73v.81c-.21 0-.31.15-.31.45s.26.66.79 1.26l11.29 13.44v-14.34q0-.81-1-.81v-.81h5.94v.81q-.75 0-.75.81v20.48q0 .81.75.81v.81h-6.37v-.81c.34 0 .51-.14.51-.41a2.13 2.13 0 0 0 -.63-1l-12-14.34v15q0 .81.91.81v.81h-5.86z"/><path d="m58.92 35.74h0a2.56 2.56 0 0 1 2.56 2.56v20.07a0 0 0 0 1 0 0h-5.13a0 0 0 0 1 0 0v-20.06a2.56 2.56 0 0 1 2.56-2.56z"/><path d="m59.35 73.49a17.49 17.49 0 0 1 -10-31.89 2 2 0 0 1  2.28 3.29 13.5 13.5 0 1 0  15.37.01 2 2 0 1 1  2.28-3.29 17.49 17.49 0 0 1 -10 31.89z"/></g></svg>