<svg xmlns="http://www.w3.org/2000/svg" xmlns:xlink="http://www.w3.org/1999/xlink" viewBox="0 0 558.2 119.24"><defs><style>.cls-1{fill:url(#radial-gradient);}.cls-2{fill:#fff;}</style><radialGradient id="radial-gradient" cx="59.35" cy="59.62" r="59.49" gradientUnits="userSpaceOnUse"><stop offset="0" stop-color="#fd0"/><stop offset="0.39" stop-color="#ffdb00"/><stop offset="0.52" stop-color="#fed401"/><stop offset="0.62" stop-color="#fcc902"/><stop offset="0.7" stop-color="#fab803"/><stop offset="0.77" stop-color="#f7a205"/><stop offset="0.83" stop-color="#f38608"/><stop offset="0.89" stop-color="#ef660b"/><stop offset="0.94" stop-color="#ea400e"/><stop offset="0.98" stop-color="#e41711"/><stop offset="1" stop-color="#e20613"/></radialGradient></defs><title>ranger</title><g id="Layer_2" data-name="Layer 2"><g id="Graphics"><path class="cls-1" d="M94.2,24.64c4-7-.6-15.06-.6-15.06,9.67,9.09,11.94,28.66,10.93,32.87S89,62.69,89,62.69C101,45,94.2,24.64,94.2,24.64ZM25.15,65.33S17.09,85.4,17.61,89.7s9.43,21.87,21.66,27c0,0-7.15-6-5.78-13.92C33.48,102.82,20,86.05,25.15,65.33Zm56.72,13.2s21.17-4.42,24.46-7.25,13-20,10.48-33c0,0-1,9.27-8.37,12.53C108.44,50.8,102,71.31,81.87,78.54ZM28.65,43.14S10.33,54.63,8.22,58.42,3,81.66,9.85,93c0,0-2.26-9,3.5-14.66C13.36,78.36,12.32,56.88,28.65,43.14Zm38.13,44s19.73,8.86,24,8.51,22.23-8.55,27.88-20.56c0,0-6.27,6.9-14.14,5.22C104.57,80.34,87.27,93.12,66.78,87.16ZM44.53,27.24S23,25.77,19,27.6,1.14,43.33,0,56.55c0,0,3.49-8.65,11.45-9.8C11.45,46.75,23.24,28.76,44.53,27.24Zm5,58s10.75,18.77,14.45,21,23,6.15,34.64-.24c0,0-9.13,1.89-14.51-4.09C84.08,102,62.58,102.13,49.5,85.27ZM66.72,23.71S50.12,9.84,45.87,9,22.16,11.22,13.47,21.25c0,0,7.91-4.94,15-1.2C28.49,20.05,48.6,12.43,66.72,23.71ZM36.63,73.58S34.3,95.08,36,99.08s15,18.5,28.17,20.17c0,0-8.5-3.83-9.33-11.83C54.8,107.41,37.3,94.91,36.63,73.58ZM86.74,33.9s-5.27-21-8.22-24.15S58-2.4,45.11.61c0,0,9.3.65,12.86,7.86C58,8.47,78.72,14.12,86.74,33.9Z"/><path class="cls-2" d="M168.19,9a37,37,0,0,1,9,1A18.86,18.86,0,0,1,184,13.16a14.2,14.2,0,0,1,4.42,5.66A21.08,21.08,0,0,1,190,27.38q0,7.78-4,11.91a20.43,20.43,0,0,1-10.8,5.54l13.68,22.41a2.83,2.83,0,0,0,1.7,1.42,7.64,7.64,0,0,0,1.8.24V71H173.13V68.89a3.37,3.37,0,0,0,1.59-.35,1.06,1.06,0,0,0,.67-.94,3,3,0,0,0-.41-1.36q-.41-.77-1.23-2.06l-11.32-18.4H147.72v21a1.91,1.91,0,0,0,.67,1.59,4,4,0,0,0,2.42.53V71H133V68.89q3,0,3-2.12V13.22q0-2.12-3-2.12V9Zm-2.68,27.6a24.73,24.73,0,0,0,6.17-.65,10.18,10.18,0,0,0,3.91-1.83,6.68,6.68,0,0,0,2.06-2.77,10.12,10.12,0,0,0,0-7,6.69,6.69,0,0,0-2.06-2.77,10.24,10.24,0,0,0-3.91-1.83,24.8,24.8,0,0,0-6.17-.65h-17.8V36.58Z"/><path class="cls-2" d="M201.22,68.89a3,3,0,0,0,2.11-1.53,26.54,26.54,0,0,0,1.49-2.95l19-45.88q.72-1.53,1.29-2.83a5.78,5.78,0,0,0,.57-2.24A1.83,1.83,0,0,0,225,11.8a5.71,5.71,0,0,0-1.54-.71V9h17.39V11.1a7.81,7.81,0,0,0-1.44.65,1.81,1.81,0,0,0-.72,1.71,5.22,5.22,0,0,0,.36,1.89q.36.95,1.08,2.48l21.4,48a3.92,3.92,0,0,0,1.39,1.89,20.12,20.12,0,0,0,2,1.18V71H246.79V68.89a2.21,2.21,0,0,0,1-.35,1.15,1.15,0,0,0,.62-1.06,8.18,8.18,0,0,0-.82-3.07l-3.91-8.73H218.6l-3.7,8.37a11,11,0,0,0-1,3.54q0,1.3,2,1.3V71H201.22ZM240,47,231.36,25,221.69,47Z"/><path class="cls-2" d="M277,68.89q2,0,2-2.12V13.22q0-2.12-2-2.12V9h17.59V11.1c-.55,0-.82.39-.82,1.18q0,.95,2.06,3.3l29.53,35.15V13.22q0-2.12-2.67-2.12V9h15.54V11.1q-2,0-2,2.12V66.77q0,2.12,2,2.12V71H321.58V68.89q1.34,0,1.34-1.06,0-.82-1.65-2.71L289.9,27.61V66.77q0,2.12,2.37,2.12V71H277Z"/><path class="cls-2" d="M405.84,28.08l-2.06-.71A5.07,5.07,0,0,0,404,26a4,4,0,0,0-1.9-3.18,17.66,17.66,0,0,0-4.83-2.42,34.09,34.09,0,0,0-6.38-1.47,48.48,48.48,0,0,0-6.53-.47,24,24,0,0,0-7.56,1.24,18.37,18.37,0,0,0-11.42,10.56,25,25,0,0,0-1.8,10,25.11,25.11,0,0,0,1.8,10,18.26,18.26,0,0,0,11.42,10.62,24,24,0,0,0,7.56,1.24,45.36,45.36,0,0,0,10.54-1.12,60.2,60.2,0,0,0,8-2.42V48.37H389.69a3,3,0,0,0-2.16.71,5.15,5.15,0,0,0-.93,3.07h-1.85V37h1.85a3.63,3.63,0,0,0,.93,2.54,3.63,3.63,0,0,0,2.16.53h25.72v2.12a5.9,5.9,0,0,0-2.57.83,2.78,2.78,0,0,0-.51,2V58.4q0,1.18.62,1.53l1.44.83v1.89a36,36,0,0,1-7.15,4.48,43.46,43.46,0,0,1-7.61,2.77,40.34,40.34,0,0,1-7.72,1.24q-3.86.23-7.56.24a39.59,39.59,0,0,1-13.12-2.06,27.33,27.33,0,0,1-10.13-6.13,27.77,27.77,0,0,1-6.53-9.91A35.78,35.78,0,0,1,352.24,40a35.78,35.78,0,0,1,2.31-13.27,27.72,27.72,0,0,1,16.67-16.28,37.67,37.67,0,0,1,13.12-2.18A51,51,0,0,1,393,9q4.11.71,7.3,1.59t5.3,1.65a11.55,11.55,0,0,0,2.62.77,2.05,2.05,0,0,0,1.44-.47,9.52,9.52,0,0,1,1-.83l1.23.83Z"/><path class="cls-2" d="M481.66,21.71a2.27,2.27,0,0,0-.87-1.95,5.29,5.29,0,0,0-3-.65H444.42V33.74h20.16a6.47,6.47,0,0,0,3.19-.65q1.13-.65,1.13-3.36h1.85v18.4h-1.85q0-2.71-1.13-3.48a5.66,5.66,0,0,0-3.19-.77H444.42V60.17h34.36a3.77,3.77,0,0,0,2.52-.83,2.78,2.78,0,0,0,1-2.24h1.85V73.26h-1.85q0-1.77-1-2a11,11,0,0,0-2.52-.24H430.84V68.89a1.83,1.83,0,0,0,1.29-.53,2.08,2.08,0,0,0,.57-1.59V13.22a2.08,2.08,0,0,0-.57-1.59,1.83,1.83,0,0,0-1.29-.53V9h46.91a4.63,4.63,0,0,0,3-.77,2.61,2.61,0,0,0,.87-2.06h1.85V21.71Z"/><path class="cls-2" d="M534,9a37,37,0,0,1,9,1,18.86,18.86,0,0,1,6.89,3.18,14.19,14.19,0,0,1,4.42,5.66,21.08,21.08,0,0,1,1.54,8.55q0,7.78-4,11.91A20.42,20.42,0,0,1,541,44.83l13.68,22.41a2.83,2.83,0,0,0,1.7,1.42,7.64,7.64,0,0,0,1.8.24V71H539V68.89a3.37,3.37,0,0,0,1.59-.35,1.06,1.06,0,0,0,.67-.94,3,3,0,0,0-.41-1.36q-.41-.77-1.23-2.06l-11.32-18.4H513.55v21a1.91,1.91,0,0,0,.67,1.59,4,4,0,0,0,2.42.53V71h-17.8V68.89q3,0,3-2.12V13.22q0-2.12-3-2.12V9Zm-2.67,27.6a24.74,24.74,0,0,0,6.17-.65,10.19,10.19,0,0,0,3.91-1.83,6.68,6.68,0,0,0,2.06-2.77,10.12,10.12,0,0,0,0-7,6.69,6.69,0,0,0-2.06-2.77,10.24,10.24,0,0,0-3.91-1.83,24.81,24.81,0,0,0-6.17-.65h-17.8V36.58Z"/><path class="cls-2" d="M138.36,110.62a.76.76,0,0,0,.24.61.82.82,0,0,0,.55.2v.81H133v-.81q.86,0,.87-.81V90.14q0-.81-.87-.81v-.81h6.14v.81a.82.82,0,0,0-.55.2.76.76,0,0,0-.24.61v8.57l8.14-7.35q.55-.54.87-.88a.94.94,0,0,0,.31-.56.53.53,0,0,0-.18-.45.66.66,0,0,0-.41-.14v-.81h8.26v.81a2.08,2.08,0,0,0-1.42.68l-9,8.25,8.26,11a10.89,10.89,0,0,0,1.2,1.33,3.76,3.76,0,0,0,1.36.88v.81h-7.28v-.81c.34,0,.51-.11.51-.32a2.67,2.67,0,0,0-.55-1l-6.73-8.89-3.3,2.93Z"/><path class="cls-2" d="M179.19,93.39a.87.87,0,0,0-.33-.74,2,2,0,0,0-1.16-.25H165V98h7.71a2.48,2.48,0,0,0,1.22-.25q.43-.25.43-1.29H175v7h-.71c0-.69-.14-1.13-.43-1.33a2.17,2.17,0,0,0-1.22-.29H165v6.22h13.14a1.44,1.44,0,0,0,1-.32,1.06,1.06,0,0,0,.37-.86h.71v6.18h-.71q0-.68-.37-.77a4.19,4.19,0,0,0-1-.09H159.76v-.81a.7.7,0,0,0,.49-.2.8.8,0,0,0,.22-.61V90.14a.8.8,0,0,0-.22-.61.7.7,0,0,0-.49-.2v-.81H177.7a1.77,1.77,0,0,0,1.16-.29,1,1,0,0,0,.33-.79h.71v6Z"/><path class="cls-2" d="M205.43,93.39a.87.87,0,0,0-.33-.74,2,2,0,0,0-1.16-.25H191.19V98h7.71a2.48,2.48,0,0,0,1.22-.25q.43-.25.43-1.29h.71v7h-.71c0-.69-.14-1.13-.43-1.33a2.17,2.17,0,0,0-1.22-.29h-7.71v6.22h13.14a1.44,1.44,0,0,0,1-.32,1.06,1.06,0,0,0,.37-.86h.71v6.18h-.71q0-.68-.37-.77a4.19,4.19,0,0,0-1-.09H186v-.81a.7.7,0,0,0,.49-.2.8.8,0,0,0,.22-.61V90.14a.8.8,0,0,0-.22-.61.7.7,0,0,0-.49-.2v-.81h17.94a1.77,1.77,0,0,0,1.16-.29,1,1,0,0,0,.33-.79h.71v6Z"/><path class="cls-2" d="M211.85,112.24v-.81q1.46,0,1.46-.81V90.14q0-.81-1.46-.81v-.81h13.85a9.8,9.8,0,0,1,5.94,1.6q2.16,1.6,2.16,5.44T231.64,101a9.8,9.8,0,0,1-5.94,1.6h-7.91v8q0,.81,1.26.81v.81Zm14.32-13.8a4.06,4.06,0,0,0,2.22-.59,3.32,3.32,0,0,0,0-4.6,4.07,4.07,0,0,0-2.22-.59h-8.38v5.77Z"/><path class="cls-2" d="M261.34,110.62q0,.81.87.81v.81h-6.06v-.81a.7.7,0,0,0,.49-.2.8.8,0,0,0,.22-.61v-18h-6.49a1.22,1.22,0,0,0-.69.23,1,1,0,0,0-.33.86h-.71V87.43h.71a1,1,0,0,0,.33.86,1.22,1.22,0,0,0,.69.23h17.47a1.22,1.22,0,0,0,.69-.23,1,1,0,0,0,.33-.86h.71v6.32h-.71a1,1,0,0,0-.33-.86,1.22,1.22,0,0,0-.69-.23h-6.49Z"/><path class="cls-2" d="M292.77,90.14c0-.54-.29-.81-.87-.81v-.81H298v.81a.7.7,0,0,0-.49.2.8.8,0,0,0-.22.61v20.48a.8.8,0,0,0,.22.61.7.7,0,0,0,.49.2v.81h-6.06v-.81c.58,0,.87-.27.87-.81v-8.48H280.1v8.48a.8.8,0,0,0,.22.61.7.7,0,0,0,.49.2v.81h-5.94v-.81q.75,0,.75-.81V90.14q0-.81-.75-.81v-.81h5.94v.81a.7.7,0,0,0-.49.2.8.8,0,0,0-.22.61v7.67h12.67Z"/><path class="cls-2" d="M324.56,93.39a.87.87,0,0,0-.33-.74,2,2,0,0,0-1.16-.25H310.32V98H318a2.48,2.48,0,0,0,1.22-.25q.43-.25.43-1.29h.71v7h-.71c0-.69-.14-1.13-.43-1.33a2.17,2.17,0,0,0-1.22-.29h-7.71v6.22h13.14a1.44,1.44,0,0,0,1-.32,1.06,1.06,0,0,0,.37-.86h.71v6.18h-.71q0-.68-.37-.77a4.18,4.18,0,0,0-1-.09H305.12v-.81a.7.7,0,0,0,.49-.2.8.8,0,0,0,.22-.61V90.14a.8.8,0,0,0-.22-.61.7.7,0,0,0-.49-.2v-.81h17.94a1.77,1.77,0,0,0,1.16-.29,1,1,0,0,0,.33-.79h.71v6Z"/><path class="cls-2" d="M343,112.24v-.81q1.46,0,1.46-.81V90.14q0-.81-1.46-.81v-.81h13.85a9.8,9.8,0,0,1,5.94,1.6q2.16,1.6,2.16,5.44T362.76,101a9.79,9.79,0,0,1-5.94,1.6h-7.91v8q0,.81,1.26.81v.81Zm14.32-13.8a4.06,4.06,0,0,0,2.22-.59,3.32,3.32,0,0,0,0-4.6,4.07,4.07,0,0,0-2.22-.59h-8.38v5.77Z"/><path class="cls-2" d="M381.52,88.24a13.93,13.93,0,0,1,4.41.74A13,13,0,0,1,390,91.22a11.85,11.85,0,0,1,0,18.31,12,12,0,0,1-4.09,2.17,14.7,14.7,0,0,1-8.81,0,12,12,0,0,1-4.09-2.17,11.85,11.85,0,0,1,0-18.31A13,13,0,0,1,377.12,89,13.94,13.94,0,0,1,381.52,88.24Zm0,4.15a9,9,0,0,0-5.69,2.1,7.82,7.82,0,0,0-1.95,2.5,8,8,0,0,0,0,6.77,7.82,7.82,0,0,0,1.95,2.5,8.81,8.81,0,0,0,11.37,0,7.85,7.85,0,0,0,1.95-2.5,8,8,0,0,0,0-6.77,7.85,7.85,0,0,0-1.95-2.5,9,9,0,0,0-5.68-2.1Z"/><path class="cls-2" d="M404.15,89.33q-.59,0-.59.86a3.07,3.07,0,0,0,.06.54,9.46,9.46,0,0,0,.3,1l4.21,12.54h.08l4.17-12.72a8.15,8.15,0,0,0,.26-.88,2.63,2.63,0,0,0,.06-.52q0-.86-.51-.86v-.81h6.73v.81a.41.41,0,0,0-.39.23,1,1,0,0,0-.12.5,5.33,5.33,0,0,0,.39,1.53L423,104.3h.08l4.25-13a3.29,3.29,0,0,0,.27-1.22.82.82,0,0,0-.2-.52.59.59,0,0,0-.47-.25v-.81h5.82v.81c-.29,0-.51.18-.65.54s-.31.81-.49,1.35l-5.66,17.23-.41,1.26a3,3,0,0,0-.18.9.88.88,0,0,0,.2.56.66.66,0,0,0,.55.25v.81h-6.22v-.81a2.24,2.24,0,0,0,.49-.27.57.57,0,0,0,.26-.5,2.83,2.83,0,0,0-.14-.81q-.14-.45-.45-1.26l-4.52-13.31h-.08l-4.29,13a10.24,10.24,0,0,0-.59,2.21c0,.48.17.78.51.9v.81H405v-.81a.94.94,0,0,0,.47-.14.48.48,0,0,0,.24-.45,2.41,2.41,0,0,0-.14-.77l-.3-.86L399,90.59a5.3,5.3,0,0,0-.33-.83.82.82,0,0,0-.57-.43v-.81h6.1Z"/><path class="cls-2" d="M456.78,93.39a.87.87,0,0,0-.33-.74,2,2,0,0,0-1.16-.25H442.54V98h7.71a2.48,2.48,0,0,0,1.22-.25q.43-.25.43-1.29h.71v7h-.71c0-.69-.14-1.13-.43-1.33a2.17,2.17,0,0,0-1.22-.29h-7.71v6.22h13.14a1.44,1.44,0,0,0,1-.32,1.06,1.06,0,0,0,.37-.86h.71v6.18H457q0-.68-.37-.77a4.18,4.18,0,0,0-1-.09H437.35v-.81a.7.7,0,0,0,.49-.2.8.8,0,0,0,.22-.61V90.14a.8.8,0,0,0-.22-.61.7.7,0,0,0-.49-.2v-.81h17.94a1.77,1.77,0,0,0,1.16-.29,1,1,0,0,0,.33-.79h.71v6Z"/><path class="cls-2" d="M476.81,88.52a14.12,14.12,0,0,1,3.42.38,7.21,7.21,0,0,1,2.64,1.22,5.42,5.42,0,0,1,1.69,2.17,8.06,8.06,0,0,1,.59,3.27,6.28,6.28,0,0,1-1.53,4.56,7.8,7.8,0,0,1-4.13,2.12l5.23,8.57a1.08,1.08,0,0,0,.65.54,2.9,2.9,0,0,0,.69.09v.81H478.7v-.81a1.29,1.29,0,0,0,.61-.14.4.4,0,0,0,.26-.36,1.13,1.13,0,0,0-.16-.52q-.16-.29-.47-.79l-4.33-7H469v8a.73.73,0,0,0,.26.61,1.55,1.55,0,0,0,.92.2v.81h-6.81v-.81q1.14,0,1.14-.81V90.14q0-.81-1.14-.81v-.81Zm-1,10.55a9.46,9.46,0,0,0,2.36-.25,3.92,3.92,0,0,0,1.5-.7,2.56,2.56,0,0,0,.79-1.06,3.86,3.86,0,0,0,0-2.66,2.56,2.56,0,0,0-.79-1.06,3.92,3.92,0,0,0-1.5-.7,9.46,9.46,0,0,0-2.36-.25H469v6.68Z"/><path class="cls-2" d="M515.91,88.24a13.93,13.93,0,0,1,4.41.74,13,13,0,0,1,4.09,2.23,11.85,11.85,0,0,1,0,18.31,12,12,0,0,1-4.09,2.17,14.7,14.7,0,0,1-8.81,0,12,12,0,0,1-4.09-2.17,11.85,11.85,0,0,1,0-18.31A13,13,0,0,1,511.51,89,13.94,13.94,0,0,1,515.91,88.24Zm0,4.15a9,9,0,0,0-5.69,2.1,7.82,7.82,0,0,0-1.95,2.5,8,8,0,0,0,0,6.77,7.82,7.82,0,0,0,1.95,2.5,8.81,8.81,0,0,0,11.37,0,7.85,7.85,0,0,0,1.95-2.5,8,8,0,0,0,0-6.77,7.85,7.85,0,0,0-1.95-2.5,9,9,0,0,0-5.68-2.1Z"/><path class="cls-2" d="M534.8,111.43q.75,0,.75-.81V90.14q0-.81-.75-.81v-.81h6.73v.81c-.21,0-.31.15-.31.45s.26.66.79,1.26l11.29,13.44V90.14q0-.81-1-.81v-.81h5.94v.81q-.75,0-.75.81v20.48q0,.81.75.81v.81h-6.37v-.81c.34,0,.51-.14.51-.41a2.13,2.13,0,0,0-.63-1l-12-14.34v15q0,.81.91.81v.81H534.8Z"/><path class="cls-2" d="M58.92,35.74h0a2.56,2.56,0,0,1,2.56,2.56V58.37a0,0,0,0,1,0,0H56.35a0,0,0,0,1,0,0V38.31a2.56,2.56,0,0,1,2.56-2.56Z"/><path class="cls-2" d="M59.35,73.49a17.49,17.49,0,0,1-10-31.89,2,2,0,0,1,2.28,3.29A13.5,13.5,0,1,0,67,44.9a2,2,0,1,1,2.28-3.29,17.49,17.49,0,0,1-10,31.89Z"/></g></g></svg>