<svg viewBox="0 0 328.7 207.8" xmlns="http://www.w3.org/2000/svg"><path d="m327.59 142-.14-.09h0a208.09 208.09 0 0 0 -31.65-13.91l6.84-17.46h0a1 1 0 0 0 -.53-1.28l0 0a272.53 272.53 0 0 0 -35-12.34 106.9 106.9 0 0 0 -7.21-32 103.86 103.86 0 0 0 -21.7-33.81 100.53 100.53 0 0 0 -33.28-23 102.63 102.63 0 0 0 -79.66-.11 104.26 104.26 0 0 0 -33.62 22.68 102.59 102.59 0 0 0 -22.26 33.81 101.16 101.16 0 0 0 -7.24 32.83l-2.76.79c-5.64 1.69-11.24 3.51-16.77 5.54-2.76 1-5.51 2.07-8.23 3.17l-4.07 1.71-1 .43-.53.23-.64.29a23.73 23.73 0 0 0 -2.4 1.35c.32 1.06.65 2.16 1 3.25.19.55.4 1.09.61 1.62l.58 1.44 2.24 5.55 2.22 5.49a207.67 207.67 0 0 0 -31.14 13.71h0l-.15.11a2.45 2.45 0 0 0  .9 4.44c2.7.53 5.43 1 8.09 1.63l4 .9c1.33.34 2.66.72 4 1.08 2.65.73 5.36 1.46 7.95 2.35l1.89.63c.57.19 1.14.37 1.72.54l3.69 1-1.59 3c-.5 1-.91 1.85-1.41 3.11l-.73 1.75-.66 1.76c-.45 1.17-.85 2.36-1.27 3.54l-1.24 3.55-1.07 3.72-.53 1.85c-.17.62-.25 1.25-.39 1.87l-.72 3.76a2.17 2.17 0 0 0 3.27 2.25l.1-.06h0a170.44 170.44 0 0 1 27.9-13.79 248.91 248.91 0 0 1  25.65-8.41 107.66 107.66 0 0 0  11.83 14.25 106 106 0 0 0  15.52 12.91 102.66 102.66 0 0 0  57.12 18.17 99.84 99.84 0 0 0  73-30.65 103.88 103.88 0 0 0  11.47-14.25 246.94 246.94 0 0 1  24.11 8 170.44 170.44 0 0 1  27.94 13.79h0l .1.06a2.17 2.17 0 0 0 3.24-2.27l-.72-3.76c-.13-.62-.21-1.25-.39-1.87l-.53-1.85-1.07-3.68-1.27-3.57c-.42-1.18-.82-2.37-1.27-3.54l-.66-1.76-.73-1.75c-.5-1.25-.91-2.1-1.41-3.11l-1.59-3 3.69-1c .58-.17 1.16-.35 1.72-.54l1.89-.63c2.59-.88 5.3-1.62 7.95-2.35 1.33-.36 2.66-.74 4-1.08l4-.9c2.66-.63 5.39-1.1 8.09-1.63a2.45 2.45 0 0 0  .87-4.45zm-18 4.75c-2.64 1-5.23 1.94-7.82 3.08l-1 .42-1 .45c-.72.33-1.44.67-2.15 1-1.41.7-2.76 1.42-4.05 2.1.35 1.26.72 2.58 1.13 3.93s.92 2.77 1.26 3.86l.56 1.75.5 1.79c.34 1.19.65 2.39 1 3.58l.93 3.59.72 3.56.36 1.77c.07.37.11.75.15 1.13a180 180 0 0 0 -25.3-10.91 248.76 248.76 0 0 0 -23.92-6.94l.63-1 2.67-.53c3.31-.59 6.66-1.13 10-1.6q10-1.42 20.15-2a1 1 0 0 0  .3-.07l0 0h .07l.16-.1.07-.06v-.05l.09-.12.06-.11v-.06l9.84-25.21a209.45 209.45 0 0 1 25.17 13.2c-.9.27-1.79.54-2.69.84l-4 1.28c-1.31.42-2.62.93-3.93 1.41zm-88.67 40.89c-1.4.86-2.78 1.76-4.19 2.59s-2.85 1.63-4.31 2.38-2.91 1.51-4.41 2.19-3 1.37-4.51 2a104.27 104.27 0 0 1 -38.36 7.71 100.79 100.79 0 0 1 -56.21-16.21 97.83 97.83 0 0 1 -28.09-27.8 101.3 101.3 0 0 1 -7.23-12.85l.42-.11q14.73-3.75 29.78-6l2-.28a71.9 71.9 0 0 0 59.36 33.21 67.26 67.26 0 0 0  48.54-19.88 70.48 70.48 0 0 0  10.82-13.59l.39.06c10 1.5 20 3.43 29.83 5.86.67.16 1.34.34 2 .51a101.13 101.13 0 0 1 -20.43 27.9 106 106 0 0 1 -15.44 12.3zm-191.81-11.78.72-3.56.93-3.59c.31-1.2.62-2.4 1-3.58l.5-1.79.56-1.75c.34-1.09.86-2.54 1.26-3.86s.78-2.66 1.13-3.93c-1.29-.68-2.64-1.4-4.05-2.1-.71-.35-1.42-.69-2.15-1l-1-.45-1-.42c-2.59-1.14-5.19-2.1-7.82-3.08-1.32-.48-2.62-1-4-1.46l-4-1.28c-.89-.3-1.79-.57-2.69-.84a209 209 0 0 1 24.73-13l1.47 3.63 9 22.19 0 0a1 1 0 0 0  .13.2l.08.1a1 1 0 0 0  .21.14l.09.05a1 1 0 0 0  .34.08h0a240.3 240.3 0 0 1 34.2 4.1 249.86 249.86 0 0 0 -24.86 7.16 180 180 0 0 0 -25.3 10.91c0-.38.08-.76.15-1.13zm.71-59.47-.54-1.34c-.16-.39-.33-.77-.51-1.15-.36-.76-.76-1.5-1.2-2.29a14.55 14.55 0 0 0 1.68-.28l.37-.11.49-.17 1-.36 4.14-1.39q4.15-1.38 8.33-2.63c5.58-1.67 11.18-3.23 16.83-4.6 11.29-2.81 22.71-5 34.19-6.84 5.75-.88 11.5-1.64 17.28-2.33 2.89-.38 5.75-.65 8.65-.91s5.82-.57 8.71-.72c5.79-.37 11.57-.9 17.37-1l8.7-.3 8.74-.1c11.6 0 23.24.35 34.82 1.16s23.16 2 34.65 3.73a382.55 382.55 0 0 1 66.83 16l-16.7 42.64a250.32 250.32 0 0 0 -28.15-9.55c-9.89-2.68-19.92-4.84-30-6.58-5-.89-10.13-1.62-15.22-2.2s-10.15-1.07-15.28-1.46q-15.33-1.18-30.71-1.21l-7.66.13c-2.55.07-5.12.2-7.68.3l-3.84.16c-1.28 0-2.56.11-3.84.22l-7.67.59c-10.19.83-20.4 2.07-30.47 3.87s-20.11 4-30 6.76a239.4 239.4 0 0 0 -28 9.82l-8.59-21.25-4.48-11.09zm97-104.58a101.16 101.16 0 0 1 38.24-7.55 101.31 101.31 0 0 1  38.3 7.4 104.24 104.24 0 0 1  32.89 21.27 100.66 100.66 0 0 1  22.54 32.37 96.57 96.57 0 0 1  6 19 98.82 98.82 0 0 1  1.74 12.5c-10.59-3-21.34-5.35-32.15-7.29l-.93-.16a69.92 69.92 0 0 0 -18.35-34.05c-.19-.21-.38-.43-.58-.63a67.88 67.88 0 0 0 -22.47-15.67 69.46 69.46 0 0 0 -54-.11 70.67 70.67 0 0 0 -22.75 15.46 69.43 69.43 0 0 0 -15.07 22.92 66.61 66.61 0 0 0 -3.61 12.18l-2.86.55q-14.76 2.64-29.19 6.63a101.57 101.57 0 0 1 29.73-63.29 100.29 100.29 0 0 1  32.55-21.53zm-24.38 66.37a69 69 0 0 1 14.86-21.84 67.7 67.7 0 0 1  22-14.52 68.79 68.79 0 0 1  51.66-.11 70.67 70.67 0 0 1  22.22 14.29 68 68 0 0 1  15.28 21.84 64 64 0 0 1  3.71 11.22c-10.86-1.88-21.81-3.16-32.79-4.1-11.75-1-23.51-1.37-35.32-1.42l-8.81.14-8.84.35c-5.9.16-11.78.69-17.66 1.15-3 .21-5.85.57-8.77.88s-5.88.65-8.79 1.08q-6.19.86-12.33 1.92a70.17 70.17 0 0 1 3.58-10.88zm-52.89 76.69q11.18-4 22.67-6.91a103.92 103.92 0 0 0 5.84 10.57 245.6 245.6 0 0 0 -28.51-3.66zm141.45 11.8a70.71 70.71 0 0 1 -25.9 5.21 68.11 68.11 0 0 1 -38-10.89 66.94 66.94 0 0 1 -10.46-8.41 65.79 65.79 0 0 1 -9.33-11.64q5.75-.82 11.52-1.54c2.51-.35 5-.54 7.55-.8l3.8-.37 3.82-.23 7.57-.53c1.26-.11 2.53-.16 3.79-.19l3.79-.13c2.53-.08 5.05-.19 7.59-.25l7.62-.08a397.94 397.94 0 0 1 58.44 4 68.16 68.16 0 0 1 -9.56 11.46 71.5 71.5 0 0 1 -22.24 14.39zm88.24-12.6a248.32 248.32 0 0 0 -26.33 3.5 102.55 102.55 0 0 0  5.05-9.8q10.76 2.72 21.28 6.3z"/><path d="m91.83 78.77a3.51 3.51 0 0 0 -.19-.46 1 1 0 0 0 -.6-.39l-6.05-2a1.49 1.49 0 0 0 -1.32 1.12 1.37 1.37 0 0 0 -.05.67l5.38 1.79a3.13 3.13 0 0 1 1.12.62 2.49 2.49 0 0 1  .67 1 3.12 3.12 0 0 1  .2 1.25 5.34 5.34 0 0 1 -.28 1.48 3.89 3.89 0 0 1 -1.11 1.71l-1.4-1.56a.79.79 0 0 0  .68-.51q.21-.65-.56-.91l-4.95-1.58a2.36 2.36 0 0 0  .3.91l-2.18.87a6.39 6.39 0 0 1 -.21-2.14 12.71 12.71 0 0 1  .65-3.64 10.48 10.48 0 0 1  1.17-2.51 9.32 9.32 0 0 1  1.13-1.37 3.36 3.36 0 0 0  .68-.83l.09-.29a1.32 1.32 0 0 0  .88.85l6.13 2a1.3 1.3 0 0 0 1.15-.19z"/><path d="m93.37 74.64a1.36 1.36 0 0 0 -.8-.91l-6.77-3a1.3 1.3 0 0 0 -1.21 0l1.71-3.85a1.36 1.36 0 0 0  .77.91l6.78 3a1.36 1.36 0 0 0 1.21 0z"/><path d="m90.9 58.29a1.3 1.3 0 0 0  .72 1l3.38 1.82a4.59 4.59 0 0 1 2.38 3.27 5.56 5.56 0 0 1 -.62 3.86l-.11.2-.12.19-1.36.09a3.44 3.44 0 0 0  .09-2.9 4.1 4.1 0 0 0 -1.87-2l-2.59-1.43-2.48 4.49a1.44 1.44 0 0 0 -.76-.8l-3-1.68a2.62 2.62 0 0 0 -1.09-.29 8.93 8.93 0 0 0  .53-1.59 5 5 0 0 0  .29-1.8l4 2.22z"/><path d="m97.55 48.91a1.3 1.3 0 0 0  .59 1.09l3.41 2.47a4.33 4.33 0 0 1 1.92 3.69 7 7 0 0 1 -1.5 4.12 9.79 9.79 0 0 1 -3 2.66l-1-2.15a3.1 3.1 0 0 0 1.51-.59l-6.48-2.89a2 2 0 0 0 -1.44-.09l2.62-3.61a1.11 1.11 0 0 0  .46.83 1.17 1.17 0 0 0  .24.13l4.34 2a3.56 3.56 0 0 1  .58.34 2.28 2.28 0 0 1  1.1 1.92l.1-.11.09-.11a1.93 1.93 0 0 0  .3-1.51 2.74 2.74 0 0 0 -1.17-1.75l-3.88-2.81a1.32 1.32 0 0 0 -1.22-.24z"/><path d="m115.18 43.55a1.18 1.18 0 0 1 -.06 1 3.35 3.35 0 0 1 -.8 1.18 2.32 2.32 0 0 1 -2.12.77l-4.54-1a8.68 8.68 0 0 1  .95.91l1.47 1.59a1.34 1.34 0 0 0 1.13.44l-3.06 2.89a1.4 1.4 0 0 0 -.38-1.14l-1.65-1.75a2.3 2.3 0 0 1 -.67-1.57 2.4 2.4 0 0 1  .69-1.68l-2.3-.55a1.65 1.65 0 0 0 -1.59.43 1.31 1.31 0 0 1 -.05-1.1 2.77 2.77 0 0 1  3-1.94l4.56 1-.78-.71q-.23-.2-.13-.1l-1.62-1.72a1.3 1.3 0 0 0 -1.13-.44l3.06-2.89a1.36 1.36 0 0 0  .36 1.14l1.65 1.75a2.39 2.39 0 0 1  .74 1.74 2.32 2.32 0 0 1 -.71 1.56l2.17.5a1.9 1.9 0 0 0 1.81-.31z"/><path d="m117.25 31.22a1.3 1.3 0 0 0  .24 1.18l2.26 3.1a4.59 4.59 0 0 1  .78 4 5.57 5.57 0 0 1 -2.19 3.24l-.18.13-.16.13-1.28-.49a3.44 3.44 0 0 0 1.3-2.59 4.1 4.1 0 0 0 -.87-2.57l-1.74-2.38-4.14 3a1.44 1.44 0 0 0 -.35-1l-2-2.8a2.62 2.62 0 0 0 -.86-.73 8.87 8.87 0 0 0  1.26-1.23 5 5 0 0 0  1-1.51l2.71 3.7z"/><path d="m125.85 26.24a1.3 1.3 0 0 0  .1 1.2l1.9 3.33a4.59 4.59 0 0 1  .32 4 5.56 5.56 0 0 1 -2.55 3l-.2.11-.2.1-1.22-.62a3.44 3.44 0 0 0 1.59-2.42 4.1 4.1 0 0 0 -.57-2.65l-1.46-2.57-4.45 2.54a1.44 1.44 0 0 0 -.23-1.08l-1.72-3a2.62 2.62 0 0 0 -.78-.82 8.91 8.91 0 0 0  1.39-1.08 5 5 0 0 0  1.23-1.4l2.27 4z"/><path d="m140.08 30.75a3.51 3.51 0 0 0  .24-.43 1 1 0 0 0 -.07-.71l-2.07-5.85a1.36 1.36 0 0 0 -1.61-.43 1.4 1.4 0 0 0 -1 1.31l2.1 6a1.83 1.83 0 0 0  .73.74l-3.9 1.38a1.29 1.29 0 0 0  .15-1.1l-2.17-6.14a1.33 1.33 0 0 0 -.84-.85l.17-.08a3.87 3.87 0 0 0  .84-.72q.35-.35.67-.63a6.83 6.83 0 0 1  .59-.48 8 8 0 0 1  2.1-1.09 7.74 7.74 0 0 1  2.3-.46 14.68 14.68 0 0 1  1.64.1 3.17 3.17 0 0 0  1.05 0l .22-.05a1.3 1.3 0 0 0 -.12 1.21l2.15 6.08a1.28 1.28 0 0 0  .83.8z"/><path d="m144.3 29.43a1.36 1.36 0 0 0  .23-1.19l-1.79-7.18a1.3 1.3 0 0 0 -.75-.94l4.09-1a1.36 1.36 0 0 0 -.24 1.17l1.79 7.2a1.36 1.36 0 0 0  .76.94z"/><path d="m157.29 18.25a1.3 1.3 0 0 0 -.35 1.17l.45 3a4.12 4.12 0 0 1 -1.2 3.76 5.87 5.87 0 0 1 -3.42 1.58l-.16-1.08q2-1 1.62-3.87l-.39-2.61a2.2 2.2 0 0 0 -1.94-.69 2.92 2.92 0 0 0 -2.31 2l-2.34-1.79a7.83 7.83 0 0 1 4.63-2.09 8.57 8.57 0 0 1  3.24.18q1.87.43 2 .42zm-3.29 13.21a2.42 2.42 0 0 1 -1.77 1.17 2.77 2.77 0 0 1 -1.77-.26 2 2 0 0 1 -1-1.57l-1.46-9.16a4.35 4.35 0 0 0 1.6.62 5.7 5.7 0 0 0  2 .07 2.6 2.6 0 0 0 -.1 1.12l1.08 7.26q.1.69.74.6a1.23 1.23 0 0 0  .29-.11z"/><path d="m167.15 17a1.3 1.3 0 0 0 -.48 1.11l.1 3.83a4.59 4.59 0 0 1 -1.62 3.71 5.57 5.57 0 0 1 -3.64 1.35h-.45l-.77-1.13a3.44 3.44 0 0 0 2.54-1.39 4.1 4.1 0 0 0  .75-2.61l-.08-3-5.12.13a1.44 1.44 0 0 0  .31-1.06l-.09-3.47a2.62 2.62 0 0 0 -.3-1.09 8.94 8.94 0 0 0  1.73-.29 5 5 0 0 0  1.7-.66l.12 4.59z"/><path d="m167.52 26.51a1.34 1.34 0 0 0  .58-1l .49-5.26a5.86 5.86 0 0 0 3.34 1.39 2.74 2.74 0 0 0 -.37 1.08l-.29 3.09a1.38 1.38 0 0 0  .43 1.14zm5.64.53a4.63 4.63 0 0 0  .38-.29 1 1 0 0 0  .25-.67l.58-6.14a2.12 2.12 0 0 0 -3-.79 3 3 0 0 0 -1.17 1.11l-1.9-2.26a6 6 0 0 1 1.82-.69 9.56 9.56 0 0 1  3.21-.23 7.34 7.34 0 0 1  2.89.92l1.19.64a2.84 2.84 0 0 0  .54.25h.21a1.31 1.31 0 0 0 -.61 1.05l-.6 6.42a1.29 1.29 0 0 0  .41 1.07z"/><path d="m188.16 30.11a3.52 3.52 0 0 0  .45-.2 1 1 0 0 0  .37-.61l1.79-6.11a1.49 1.49 0 0 0 -1.16-1.28 1.36 1.36 0 0 0 -.67 0l-1.6 5.45a3.12 3.12 0 0 1 -.59 1.14 2.48 2.48 0 0 1 -.94.7 3.12 3.12 0 0 1 -1.24.24 5.33 5.33 0 0 1 -1.49-.24 3.89 3.89 0 0 1 -1.75-1.06l1.46-1.46a.79.79 0 0 0  .53.66q.66.19.89-.59l1.46-5a2.36 2.36 0 0 0 -.9.33l-.94-2.15a6.39 6.39 0 0 1 2.13-.27 12.7 12.7 0 0 1  3.69.53 10.48 10.48 0 0 1  2.55 1.09 9.34 9.34 0 0 1  1.41 1.08 3.33 3.33 0 0 0  .85.65l.2.08a1.32 1.32 0 0 0 -.83.91l-1.83 6.17a1.3 1.3 0 0 0  .23 1.14z"/><path d="m199.85 24.23a1.36 1.36 0 0 0 -.88.8l-1.49 3.67a12.29 12.29 0 0 0 -1.42 0q-.88 0-2.11.21l2.05-5.06a1.3 1.3 0 0 0 -.06-1.21z"/><path d="m205.79 36.23q-.69 1.33-1.83.73l-7.59-3.96a1.6 1.6 0 0 0  .67-.49 3.61 3.61 0 0 0  .55-.77l.29-.56.75.8.35.36a6.75 6.75 0 0 0 1.5 1 4 4 0 0 0  1.78.52 2.35 2.35 0 0 1  .31-1.35l1.86-3.6a1.29 1.29 0 0 0 -.71-1.31q-1-.53-2.53.58l-.86-2.83a7.28 7.28 0 0 1 4.64.84 6.07 6.07 0 0 1  1.68 1.24 8 8 0 0 1  .86 1.17 2.48 2.48 0 0 0  .61.75l.18.12a1.31 1.31 0 0 0 -1 .75l-2 3.94q-.46.89.2 1.23a.88.88 0 0 0  .64.05z"/><path d="m217.58 34.49a1.3 1.3 0 0 0 -1 .62l-2.15 3.17a4.59 4.59 0 0 1 -3.48 2.06 5.57 5.57 0 0 1 -3.79-1l-.19-.13-.18-.14v-1.37a3.44 3.44 0 0 0 2.88.35 4.1 4.1 0 0 0  2.13-1.68l1.65-2.37-4.24-2.88a1.44 1.44 0 0 0  .87-.68l1.92-2.9a2.62 2.62 0 0 0  .39-1.06 8.87 8.87 0 0 0  1.58.77 5 5 0 0 0  1.77.46l-2.58 3.79z"/><path d="m219.81 49.25a3.44 3.44 0 0 0  .49 0 1 1 0 0 0  .6-.37l4.34-4.44a1.36 1.36 0 0 0 -.32-1.64 1.4 1.4 0 0 0 -1.62-.32l-4.42 4.52a1.83 1.83 0 0 0 -.34 1l-3-2.89a1.3 1.3 0 0 0 1.05-.35l4.55-4.66a1.33 1.33 0 0 0  .4-1.13l.15.12a3.88 3.88 0 0 0 1 .44l.86.32a6.83 6.83 0 0 1  .7.32 8 8 0 0 1  1.91 1.4 7.75 7.75 0 0 1  1.43 1.86 14.55 14.55 0 0 1  .63 1.52 3.17 3.17 0 0 0  .43 1l .15.17a1.3 1.3 0 0 0 -1.14.43l-4.5 4.61a1.28 1.28 0 0 0 -.35 1.1z"/><path d="m222.86 52.43a1.35 1.35 0 0 0 1.16-.32l5.65-4.79a1.3 1.3 0 0 0  .51-1.09l2.72 3.21a1.36 1.36 0 0 0 -1.15.3l-5.66 4.8a1.36 1.36 0 0 0 -.5 1.1z"/><path d="m238.68 57.33a1.3 1.3 0 0 0 -1.19.22l-3.13 2.22a4.59 4.59 0 0 1 -4 .72 5.57 5.57 0 0 1 -3.21-2.24l-.13-.18-.12-.19.51-1.27a3.44 3.44 0 0 0 2.59 1.34 4.1 4.1 0 0 0  2.58-.83l2.42-1.72-3-4.18a1.44 1.44 0 0 0 1.05-.34l2.83-2a2.62 2.62 0 0 0  .74-.85 8.86 8.86 0 0 0  1.21 1.28 5 5 0 0 0  1.49 1l-3.71 2.69z"/><path d="m245.32 69.61a1.28 1.28 0 0 0 -1.19 0l-3.4 1.77a4.79 4.79 0 0 1 -4.31.32 7.28 7.28 0 0 1 -3.29-3.51 11.41 11.41 0 0 1 -1.13-3.39q-.31-1.91-.35-2l-.14-.28a1.57 1.57 0 0 0 1.41-.16l5.82-3a1.3 1.3 0 0 0  .74-1l1.87 3.64a3.57 3.57 0 0 0 -1.13.15l-4.71 2.45a1.83 1.83 0 0 0 2.36.2l2.92-1.52a1.3 1.3 0 0 0  .75-.93l1.77 3.41a1.37 1.37 0 0 0 -1.19 0l-2.94 1.53q-1.62.84-3.23-1-1.2-1.36-1.67-1.12-.25.13-.1.79a6 6 0 0 0  .55 1.41 3.29 3.29 0 0 0  1.76 1.65 3.14 3.14 0 0 0  2.63-.28l3.61-1.88a1.81 1.81 0 0 0  .76-.83z"/><path d="m248.27 81.26a1.32 1.32 0 0 0 -1.19-.14l-4.61 1.58q-2.75.94-3.84-2.23a3.34 3.34 0 0 1 -.21-1.9l1.33.08a1 1 0 0 0 0 .5q.35 1 1.49.63l4.27-1.46a1.08 1.08 0 0 1  .76 0 1.19 1.19 0 0 0  0-.65 2.35 2.35 0 0 0 -1.7-1.43 4.67 4.67 0 0 0 -2.89.1l-2.73.93a1.22 1.22 0 0 0 -.82.79l-1.35-4a1.38 1.38 0 0 0 1.22.12l7-2.39a1.3 1.3 0 0 0  .87-.83l1 2.88a.65.65 0 0 1 -.43.94l-1.33.46a3.56 3.56 0 0 1 2.17.81 3.91 3.91 0 0 1  1.24 1.81 4.81 4.81 0 0 1  .26 2 2.81 2.81 0 0 1 -.51 1.4z"/><path d="m92.78 158.91.33.06.32.07a1.8 1.8 0 0 0  .92-.44l4.65-3.6a3.22 3.22 0 0 0 -.41-3.2 3.27 3.27 0 0 0 -1.32-1 3.07 3.07 0 0 0 -1.6-.31l-7 5.34a2.69 2.69 0 0 0 -.71 1.26l-2.39-3.09a1.82 1.82 0 0 0 1.52-.3l6.57-5a1.83 1.83 0 0 0  .79-1.46l.18.19a21 21 0 0 0 2.16 1.15 8.25 8.25 0 0 1  3 2.44 7.68 7.68 0 0 1  1.52 3.5 11.65 11.65 0 0 0  .46 2.29l.16.26a1.86 1.86 0 0 0 -1.64.39l-4.29 3.28a1.89 1.89 0 0 0 -.76 1.43zm3.45 7.38a3.2 3.2 0 0 0 -.64-.4l-1.51-.76a8.11 8.11 0 0 1 -3-2.44 7.64 7.64 0 0 1 -1.51-3.49q-.17-1-.28-1.6a2.81 2.81 0 0 0 -.19-.7l-.15-.25a1.88 1.88 0 0 0 1.65-.4l4.27-3.25a1.85 1.85 0 0 0  .75-1.42l2.46 3.24-.31-.06-.33-.06a1.58 1.58 0 0 0 -.92.41l-4.69 3.56a3.16 3.16 0 0 0 1.72 4.2 3.31 3.31 0 0 0  1.62.31l7.28-5.52a2.65 2.65 0 0 0  .7-1.28l2.39 3.15a1.85 1.85 0 0 0 -1.52.3l-6.82 5.17a1.86 1.86 0 0 0 -.79 1.46z"/><path d="m98.6 170.13a1.71 1.71 0 0 0 1.52-.43l.12-.14a4.67 4.67 0 0 1 3-1.49 20 20 0 0 1  4.23.12 5.66 5.66 0 0 0  4.32-1 2.64 2.64 0 0 0 -.74-2.56 2.73 2.73 0 0 0 -1.74-.6 4.06 4.06 0 0 0 -2.18.56l-.46-3.06a5.89 5.89 0 0 1 2.63.25 7.76 7.76 0 0 1  3 1.67 5.94 5.94 0 0 1  1.68 2.85 10.21 10.21 0 0 0  1 2.58 9.67 9.67 0 0 1 -3.26 1.88 9.14 9.14 0 0 1 -4.31.18q-3.11-.54-4.34.42a4 4 0 0 0 1.1 1.65 8.62 8.62 0 0 0  4.1 1.9l-.61.69a3.21 3.21 0 0 0 -.53 2.1z"/><path d="m109.08 179.23a1.71 1.71 0 0 0 1.44-.65l.1-.15a4.66 4.66 0 0 1 2.74-1.92 20 20 0 0 1  4.2-.51 5.66 5.66 0 0 0  4.13-1.61 2.64 2.64 0 0 0 -1.11-2.42 2.73 2.73 0 0 0 -1.81-.33 4.06 4.06 0 0 0 -2.07.87l-.9-3a5.89 5.89 0 0 1 2.64-.14 7.75 7.75 0 0 1  3.21 1.21 5.93 5.93 0 0 1  2.08 2.57 10.21 10.21 0 0 0  1.38 2.4 9.67 9.67 0 0 1 -2.94 2.34 9.13 9.13 0 0 1 -4.24.81q-3.15-.07-4.23 1a4 4 0 0 0 1.34 1.47 8.62 8.62 0 0 0  4.34 1.28l-.51.77a3.22 3.22 0 0 0 -.22 2.16z"/><path d="m135.93 180.66a2.57 2.57 0 0 0 -1.07 1.21l-2.78 6.05a4.1 4.1 0 0 1 -2.53 2.32 5.44 5.44 0 0 1 -4-.44 6.42 6.42 0 0 1 -3.75-4.24l2.62-.66q-.16 2.44 1.41 3.16a2.5 2.5 0 0 0 1.68.19 1.83 1.83 0 0 0  1.3-1.09l1.14-2.48a2.79 2.79 0 0 1 -2.82 0q-3.74-1.72-2.15-5.19l.84-1.83a2.6 2.6 0 0 0  .3-1.56 2.93 2.93 0 0 0  1.69 0l1.05-.28a2.79 2.79 0 0 1  .59-.1 6.44 6.44 0 0 1  4.65 2.14 10.53 10.53 0 0 1  .75 1.48 2.92 2.92 0 0 0  1.08 1.32zm-3.59-1.18a2.21 2.21 0 0 0 -1.09-1.58 2.14 2.14 0 0 0 -2 .19l-1.39 3a2 2 0 0 0 -.17 1.39 1.58 1.58 0 0 0  .92 1.05q1.5.69 2.3-1z"/><path d="m141.06 194.55a1.42 1.42 0 0 0  .57-.74l.32-1.32a1.41 1.41 0 0 0 -.17-.91l3.65.87a1.49 1.49 0 0 0 -.55.74l-.32 1.32a1.45 1.45 0 0 0  .16.91zm1.9-7.93a1.41 1.41 0 0 0  .57-.74l.32-1.33a1.41 1.41 0 0 0 -.17-.91l3.65.87a1.49 1.49 0 0 0 -.55.74l-.32 1.33a1.44 1.44 0 0 0  .16.91z"/><path d="m160.44 184.16a1.86 1.86 0 0 0 -.86 1.45l-.81 6.6a5.07 5.07 0 0 1 -2.83 4 8.57 8.57 0 0 1 -5.31.9l.1-.83a5.07 5.07 0 0 0 3.33-1.39 4.7 4.7 0 0 0  1.41-2.91l.81-6.58-6.82-.84a2.1 2.1 0 0 0  .63-1.43l.48-3.92a4 4 0 0 0 -.17-1.58 6.64 6.64 0 0 0  1.89-.12 6.36 6.36 0 0 0  1.89-.64l-.79 6.42z"/><path d="m167.12 184.15a2 2 0 0 0 -.71 1.5l-.09 5.58a17.39 17.39 0 0 0 -3.35 2.43l.13-8a1.86 1.86 0 0 0 -.66-1.55z"/><path d="m175.56 197.05.23-.24.22-.25a1.72 1.72 0 0 0  .11-1l-.7-6.53q-.28.27-.64.69l-.84 1a4.31 4.31 0 0 0 -.52 3.08l.21 1.94a2 2 0 0 0  .84 1.46l-4.64.49a2 2 0 0 0  .51-1.61l-.16-1.46a4.66 4.66 0 0 1  .59-3 7.19 7.19 0 0 1  2.16-2.06q2.58-1.78 2.4-3.53-.14-1.29-1.87-1.11a2.64 2.64 0 0 0 -1.54.8 4.57 4.57 0 0 0 -1.1 1.71l-2.27-1.75a6.4 6.4 0 0 1 2-1.55 7.91 7.91 0 0 1  2.87-.93 6.18 6.18 0 0 1  3.4.61 6.72 6.72 0 0 0  2 .75h.15a1.9 1.9 0 0 0 -.5 1.62l1 9a1.87 1.87 0 0 0  .82 1.37z"/><path d="m190.52 194.14.19-.27q.1-.14.18-.28a1.54 1.54 0 0 0 0-1l-2.43-9a3.11 3.11 0 0 0 -3-.86q-1.56.42-2.5 3l-2.56-1.42a8.75 8.75 0 0 1 5-3.36 8.43 8.43 0 0 1  3.89-.1q2.23.4 2.39.39h.29a1.9 1.9 0 0 0 -.28 1.69l2.37 8.77a1.88 1.88 0 0 0 1.07 1.22z"/><path d="m211.87 185.11.11-.31q.06-.16.11-.32a1.55 1.55 0 0 0 -.27-1l-4.58-8.11a3.11 3.11 0 0 0 -3.1-.1q-1.41.8-1.67 3.57l-2.84-.75a8.75 8.75 0 0 1 4-4.48 8.44 8.44 0 0 1  3.75-1.06q2.26-.16 2.42-.22l.27-.12a1.9 1.9 0 0 0  .15 1.71l4.46 7.91a1.88 1.88 0 0 0 1.33.92z"/><path d="m214.43 167.13a2 2 0 0 0  .35 1.62l3.32 4.49a17.4 17.4 0 0 0 -1.19 4l-4.78-6.47a1.86 1.86 0 0 0 -1.46-.84z"/><path d="m231.24 170.24q0-.16 0-.33a3.31 3.31 0 0 0 0-.34 1.72 1.72 0 0 0 -.53-.86l-6.41-6.71a3 3 0 0 0 -2.91.58 2.84 2.84 0 0 0 -.72 2.83l6.56 6.81a2.69 2.69 0 0 0 1.34.56l-3.29 3.22a1.82 1.82 0 0 0 -.48-1.48l-6.36-6.61a1.9 1.9 0 0 0 -1.55-.63l.18-.21a4.58 4.58 0 0 0  .33-.7q.25-.6.68-1.68a9 9 0 0 1 2.18-3.36 8.6 8.6 0 0 1  3.4-2 15.17 15.17 0 0 0  2.34-.85l.24-.19a1.88 1.88 0 0 0  .59 1.6l6.3 6.54a1.85 1.85 0 0 0 1.5.57z"/><path d="m235.39 146.34a1.83 1.83 0 0 0  .83 1.44l5 3.6a4.37 4.37 0 0 1 2 2.94 4.75 4.75 0 0 1 -1 3.49 3.05 3.05 0 0 1 -1.63 1.27l-.34-.93a1.51 1.51 0 0 0  .53-.46 2 2 0 0 0  .33-1.58 2.55 2.55 0 0 0 -1.12-1.64l-5.39-3.86a1.64 1.64 0 0 1 -.7-1 1.72 1.72 0 0 0 -1.54.8 3.42 3.42 0 0 0 -.31 3.24 6.88 6.88 0 0 0  2.65 3.37l3.81 2.73a1.76 1.76 0 0 0 1.55.33l-2.7 3.77a2 2 0 0 0 -.88-1.47l-8.48-6.04a1.87 1.87 0 0 0 -1.65-.35l1.82-2.53q.58-.81 1.64-.05l1.37 1a4.82 4.82 0 0 1 -.91-3.07 5.26 5.26 0 0 1  1-2.86 4.68 4.68 0 0 1  4.12-2.14z"/><path d="m60.06 136 .17-.29.18-.28a1.65 1.65 0 0 0 -.06-1l-1.68-5.76a3.41 3.41 0 0 0 -1.76-.66 4.77 4.77 0 0 0 -2 .07 4.09 4.09 0 0 0 -1.58 1 3.21 3.21 0 0 0 -1 1.43l2.67 9.21a2.73 2.73 0 0 0  .94 1.14l-4.76 1.38a1.85 1.85 0 0 0  .27-1.55l-2.56-8.69a1.86 1.86 0 0 0 -1.09-1.28l.24-.1a4.92 4.92 0 0 0  .73-.58q.6-.53 1.67-1.53a10 10 0 0 1 3.92-2.42 10.46 10.46 0 0 1  4.7-.09l2.27.38a5 5 0 0 0  .93.1l.29-.05a1.89 1.89 0 0 0 -.23 1.7l1.52 5.23a1.93 1.93 0 0 0 1.08 1.24zm10.06-1.12a5 5 0 0 0 -.73.58q-.6.53-1.67 1.53a10 10 0 0 1 -3.92 2.42 10.29 10.29 0 0 1 -4.7.07 23.29 23.29 0 0 0 -3.19-.46l-.29.05a1.89 1.89 0 0 0  .23-1.7l-1.53-5.24a1.88 1.88 0 0 0 -1.08-1.22l4.87-1.42-.18.28-.17.29a1.61 1.61 0 0 0  .06 1l1.67 5.75a3.51 3.51 0 0 0 1.75.68 4.72 4.72 0 0 0  2.06-.07 4.08 4.08 0 0 0  1.58-1 3.28 3.28 0 0 0  1-1.45l-2.6-8.92a2.74 2.74 0 0 0 -.94-1.14l4.76-1.38a1.88 1.88 0 0 0 -.27 1.55l2.43 8.36a1.86 1.86 0 0 0 1.09 1.28z"/><path d="m98.52 130.54-15.36 3.2q.94-.92 1.4-1.41l.49-.53a3.59 3.59 0 0 0  .94-3l-3.11-14.94a13.72 13.72 0 0 1 -3.46 6 17.4 17.4 0 0 1 -4.74 3.82 9.25 9.25 0 0 1 -5.08-4 26.61 26.61 0 0 0  8.4-6.12 15.85 15.85 0 0 0  4.4-7.67l9.52-2q-1.8 2.51-1.46 4.17l4 19.06a3.73 3.73 0 0 0 1.87 2.34z"/><path d="m127.91 122a8.57 8.57 0 0 0 -1.33-.37q-.72-.14-1.54-.25l.34 2.62q.16 1.28 2.27 2.69l-12.57 1.6 1.19-1.33a2.41 2.41 0 0 0  .58-1.81l-.36-2.81q-1.05 0-1.81.06t-1.24.11q-8.67 1.11-11.89 2.85a10.57 10.57 0 0 0  .57-5.53l-.35-2.75q-.86-6.71 2.55-11.12t10.45-5.33a43.57 43.57 0 0 0 9-2.42 3.85 3.85 0 0 0 -1.22 3.35l1.93 15.1a10.23 10.23 0 0 0 2.52-1.56 11.38 11.38 0 0 0 -.13 3.34 9.63 9.63 0 0 0  1.04 3.56zm-13.67-17.17q-5.71 2.12-4.68 10.24l.45 3.51a13.08 13.08 0 0 0 1.54 0 12.88 12.88 0 0 0  1.54-.17q.76-.1 2.81-.55z"/><path d="m156.4 100.3a4.37 4.37 0 0 0 -.83 2.57l.65 12.9q.55 10.88-12.39 11.53-8.42.42-12.46-3.9l5.17-5.07q2.84 4.48 6.72 4.28a4.53 4.53 0 0 0 2.93-1.2 3.83 3.83 0 0 0  1.29-3.21l-.24-4.76a5.92 5.92 0 0 1 -2.51 2.1 9.61 9.61 0 0 1 -4 1.13 9.39 9.39 0 0 1 -6.25-1.78 8.21 8.21 0 0 1 -3.32-6.58l-.21-4.21a4.15 4.15 0 0 0 -.9-2.48 8.46 8.46 0 0 0  3.4-1.62 27 27 0 0 1  3.4-2.27 15.33 15.33 0 0 1  5.94-1.35 16.29 16.29 0 0 1  6.17.74 34.68 34.68 0 0 1  3.82 1.9 9.68 9.68 0 0 0  3.62 1.28zm-9.7 2.4a3.86 3.86 0 0 0 -6.79.34l.25 4.88q.21 4.24 3.65 4.07a3.12 3.12 0 0 0 2.37-1.23 3.57 3.57 0 0 0  .8-2.54z"/><path d="m187 125.86a13.41 13.41 0 0 0 1-.86 2.85 2.85 0 0 0  .61-1.94l1-17.57a4.55 4.55 0 0 0 -4-3.07q-4-.23-6.64 4.42l-5.54-6.39q5.48-3.66 13.77-3.17a19.36 19.36 0 0 1 6.15 1.31 23.88 23.88 0 0 1  3.85 2.07 7.19 7.19 0 0 0  2.61 1.26l.61.1a3.75 3.75 0 0 0 -1.63 3.08l-1.07 18.43a3.7 3.7 0 0 0 1.27 3z"/><path d="m215.54 101a3.9 3.9 0 0 0 -1.81 2.89l-1.28 11.28a35.41 35.41 0 0 0 -3.91 1.13q-2.38.81-5.67 2.2l1.77-15.59a3.72 3.72 0 0 0 -1.08-3.28z"/><path d="m230.56 131.1a10 10 0 0 0 1.19-.73 2.85 2.85 0 0 0  .82-1.85l3-17.52a3.89 3.89 0 0 0 -3.42-3.34 4 4 0 0 0 -4.35 1.87l-3.1 17.82a5.26 5.26 0 0 0  .78 2.88l-11.67-2a3.71 3.71 0 0 0 1.91-2.54l3.2-18.37a3.79 3.79 0 0 0 -.89-3.31h.56a11.12 11.12 0 0 0 3.1-.61q1.38-.38 2.55-.65a19.66 19.66 0 0 1 2.16-.37 23 23 0 0 1  6.77.21 22.15 22.15 0 0 1  6.38 2.08 41.79 41.79 0 0 1  4 2.56 9.06 9.06 0 0 0  2.57 1.57l.63.17a3.72 3.72 0 0 0 -2 2.87l-3.17 18.16a3.67 3.67 0 0 0  .95 3.16z"/><path d="m279.31 117.32a3.76 3.76 0 0 0 -2.22 2.63l-3.54 13.51q-2.11 8.06-11.4 5.63a9.57 9.57 0 0 1 -4.87-2.52l2.29-3.06a2.85 2.85 0 0 0 1.2.76q3 .78 3.85-2.55l3.27-12.5a3.11 3.11 0 0 1 1.13-1.87 3.39 3.39 0 0 0 -1.59-1q-3-.78-6.1 1.81a13.37 13.37 0 0 0 -4.33 7.07l-2.1 8a3.48 3.48 0 0 0  .59 3.21l-11.58-3a4 4 0 0 0 2.21-2.73l5.35-20.44a3.72 3.72 0 0 0 -.6-3.4l8.42 2.2a1.85 1.85 0 0 1 1.57 2.51l-1 3.9a10.2 10.2 0 0 1 5.38-3.9 11.2 11.2 0 0 1  6.29-.1 13.76 13.76 0 0 1  5.08 2.47 8.06 8.06 0 0 1  2.7 3.37z"/><path d="m140.57 58.35a2.84 2.84 0 0 0 -.83 2.5l1 9.13a9.45 9.45 0 0 1 -3.15 8.5 15.29 15.29 0 0 1 -8.85 3.61 21.35 21.35 0 0 1 -8.66-.92l2-4.79a6.75 6.75 0 0 0 3.17 1.56l-5-14.71a4.28 4.28 0 0 0 -2-2.45l9.67-1.06a2.42 2.42 0 0 0 -.66 2 2.6 2.6 0 0 0  .13.57l3.1 10a7.93 7.93 0 0 1  .3 1.43 5 5 0 0 1 -1.48 4.59h.32.32a4.2 4.2 0 0 0 2.88-1.73 6 6 0 0 0  1.17-4.51l-1.14-10.39a2.89 2.89 0 0 0 -1.39-2.32z"/><path d="m164.09 76.37q-.22 1.79-2.82 1.92l-18.1.86a3 3 0 0 0  .72-1.65 7.91 7.91 0 0 0  .23-2.05l-.06-1.19a17 17 0 0 0 6.94 1.16 15.71 15.71 0 0 0  3.1-.4l-8.9-13a3.21 3.21 0 0 0 -2.89-1.65 3.89 3.89 0 0 1  1.48-1.92 5.05 5.05 0 0 1  2.73-.9 5.77 5.77 0 0 1  5.43 2.61l4 6 .18-.13a14.46 14.46 0 0 1 -.29-2.57l-.15-3.46a2.83 2.83 0 0 0 -1.26-2.33l8.76-.41a3 3 0 0 0 -1 2.39l.17 3.7q.18 3.77-4.22 6l3.75 5.43a3.58 3.58 0 0 0 2.2 1.59z"/><path d="m186 75.25q-.06 3.26-2.87 3.21l-18.63-.33a3.49 3.49 0 0 0  .83-1.6 7.88 7.88 0 0 0  .34-2v-1.38l2.24.85q.81.31 1 .36a14.76 14.76 0 0 0 3.93.56 8.65 8.65 0 0 0  4-.7 5.12 5.12 0 0 1 -.7-2.94l.16-8.83a2.81 2.81 0 0 0 -2.66-1.88q-2.53 0-4.38 3.58l-4.42-4.7a15.88 15.88 0 0 1 9.9-2.85 13.2 13.2 0 0 1  4.49.81 17.46 17.46 0 0 1  2.81 1.46 5.4 5.4 0 0 0  1.93.88l.47.05a2.86 2.86 0 0 0 -1.14 2.39l-.17 9.68q0 2.18 1.58 2.21a1.92 1.92 0 0 0 1.3-.52z"/><path d="m210.55 62a2.87 2.87 0 0 0 -1.35 2.25l-1 10.59q-.6 6.32-7.88 5.63a7.29 7.29 0 0 1 -4-1.3l1.35-2.58a2.18 2.18 0 0 0 1 .42q2.33.22 2.58-2.39l.94-9.8a2.37 2.37 0 0 1  .62-1.54 2.59 2.59 0 0 0 -1.31-.53 5.12 5.12 0 0 0 -4.37 2.1 10.19 10.19 0 0 0 -2.4 5.85l-.6 6.28a2.65 2.65 0 0 0  .84 2.34l-9.08-.87a3 3 0 0 0 1.33-2.32l1.53-16a2.84 2.84 0 0 0 -.87-2.48l6.6.63q1.63.16 1.49 1.7l-.28 3.02a7.77 7.77 0 0 1 3.57-3.59 8.53 8.53 0 0 1  4.72-.84 10.5 10.5 0 0 1  4.12 1.24 6.14 6.14 0 0 1  2.45 2.19z"/><path d="m165.09 143.91 3.16 9.72h10.22l-8.27 6.01 3.16 9.73-8.27-6.01-8.27 6.01 3.16-9.73-8.27-6.01h10.22z"/><path d="m140.62 144.73 2.25 6.9h7.25l-5.87 4.27 2.25 6.9-5.88-4.27-5.87 4.27 2.25-6.9-5.88-4.27h7.26z"/><path d="m123.09 137.95 1.52 4.68h4.93l-3.98 2.9 1.52 4.68-3.99-2.89-3.98 2.89 1.52-4.68-3.99-2.9h4.93z"/><path d="m189.49 144.73-2.24 6.9h-7.26l5.88 4.27-2.25 6.9 5.87-4.27 5.88 4.27-2.25-6.9 5.87-4.27h-7.25z"/><path d="m207.03 137.95-1.53 4.68h-4.92l3.98 2.9-1.52 4.68 3.99-2.89 3.98 2.89-1.52-4.68 3.98-2.9h-4.92z"/></svg>