<svg style="position: absolute; width: 0; height: 0; overflow: hidden;" version="1.1" xmlns="http://www.w3.org/2000/svg" xmlns:xlink="http://www.w3.org/1999/xlink">
<defs>
<symbol id="icon-light" viewBox="0 0 29 32">
<title>light</title>
<path d="M14.107 4.491c0.157 0.073 0.34 0.115 0.533 0.115s0.377-0.042 0.541-0.118l-0.008 0.003c0.645-0.277 0.875-0.827 0.875-2.133 0-1.733-0.363-2.336-1.419-2.347s-1.419 0.619-1.419 2.347c0.027 1.301 0.251 1.856 0.896 2.133z"></path>
<path d="M23.851 3.067c-0.827-0.651-1.488-0.4-2.576 0.939-0.821 1.019-0.992 1.6-0.667 2.213 0.17 0.337 0.474 0.586 0.839 0.681l0.009 0.002c0.677 0.192 1.2-0.096 2.021-1.12 1.088-1.344 1.184-2.048 0.373-2.715z"></path>
<path d="M29.088 11.232c-0.235-1.024-0.907-1.253-2.597-0.885-1.28 0.277-1.776 0.613-1.904 1.307-0.020 0.086-0.032 0.185-0.032 0.286 0 0.294 0.098 0.566 0.264 0.784l-0.002-0.003c0.405 0.571 0.997 0.677 2.277 0.4 1.707-0.373 2.203-0.853 1.995-1.888z"></path>
<path d="M7.675 6.901c0.379-0.093 0.687-0.343 0.855-0.675l0.003-0.007c0.331-0.619 0.16-1.195-0.667-2.213-1.067-1.349-1.749-1.6-2.576-0.939s-0.715 1.371 0.373 2.715c0.811 1.024 1.333 1.312 2.011 1.12z"></path>
<path d="M2.667 10.347c-1.717-0.368-2.384-0.144-2.624 0.885s0.304 1.515 1.995 1.883c1.28 0.277 1.867 0.176 2.277-0.4 0.163-0.214 0.261-0.486 0.261-0.78 0-0.101-0.012-0.2-0.034-0.295l0.002 0.009c-0.128-0.688-0.624-1.024-1.877-1.301z"></path>
<path d="M14.651 28.587c-2.069 0-2.469 0.037-2.667 0.229-0.155 0.144-0.252 0.349-0.252 0.576s0.097 0.432 0.252 0.576l0.001 0c0.256 0.256 0.459 0.277 2.592 0.277h0.133c2.133 0 2.341 0 2.592-0.277 0.155-0.144 0.252-0.349 0.252-0.576s-0.097-0.432-0.252-0.576l-0.001-0c-0.181-0.192-0.581-0.229-2.651-0.229z"></path>
<path d="M14.651 30.933c-1.211 0-1.552 0.043-1.552 0.187 0 0.229 0.379 0.581 0.832 0.773 0.216 0.068 0.465 0.108 0.723 0.108s0.506-0.039 0.74-0.112l-0.018 0.005c0.453-0.192 0.832-0.533 0.832-0.773-0.005-0.144-0.347-0.187-1.557-0.187z"></path>
<path d="M17.733 26.107c-0.712-0.101-1.535-0.158-2.372-0.158-0.25 0-0.499 0.005-0.746 0.015l0.035-0.001c-0.212-0.009-0.461-0.014-0.711-0.014-0.836 0-1.659 0.057-2.465 0.169l0.093-0.011c-0.405 0.219-0.379 1.285 0.043 1.6 0.261 0.187 0.715 0.213 3.040 0.181s2.779 0 3.040-0.181c0.443-0.32 0.443-1.387 0.043-1.6z"></path>
<path d="M20.955 9.6c-1.593-1.557-3.776-2.518-6.182-2.518-0.043 0-0.086 0-0.128 0.001l0.006-0c-0.036-0.001-0.079-0.001-0.122-0.001-2.407 0-4.589 0.961-6.184 2.52l0.002-0.002c-1.33 1.232-2.16 2.988-2.16 4.938 0 0.21 0.010 0.419 0.029 0.624l-0.002-0.026c0.251 4.619 3.733 5.419 4.517 8.069 0.095 0.46 0.303 0.861 0.594 1.186l-0.002-0.002c0.4 0.277 6.229 0.283 6.629 0 0.289-0.323 0.497-0.724 0.589-1.168l0.003-0.016c0.784-2.64 4.267-3.461 4.517-8.069 0.018-0.186 0.029-0.402 0.029-0.62 0-1.938-0.82-3.685-2.132-4.912l-0.004-0.004zM19.557 15.024c-0.056-1.329-0.662-2.506-1.594-3.318l-0.006-0.005c-1.093-0.869 0.448-2.389 1.531-1.531 1.429 1.131 2.133 3.083 2.24 4.853 0.085 1.392-2.080 1.387-2.171 0z"></path>
</symbol>
<symbol id="icon-battery" viewBox="0 0 68 32">
<title>battery</title>
<path d="M56.718 23.423v-14.846c-0.006-1.129-0.92-2.042-2.048-2.049h-15.849l-2.352 3.985h12.64l-16.726 14.97h22.286c1.133-0.006 2.049-0.926 2.049-2.060 0 0 0-0 0-0v0zM65.925 10.682h-2.679v-2.105c-0.006-4.734-3.843-8.57-8.576-8.577h-46.093c-4.734 0.006-8.57 3.843-8.577 8.576v14.847c0.006 4.734 3.843 8.57 8.576 8.577h11.031l1.7-3.264h-12.73c-2.934 0-5.313-2.379-5.313-5.313v0-14.846c0-2.934 2.379-5.313 5.313-5.313v0h20.688l-9.432 14.97h9.432l-6.979 13.372 21.127-18.921h-10.772l5.628-9.421h16.4c2.934 0 5.313 2.379 5.313 5.313v0 14.846c0 2.934-2.379 5.313-5.313 5.313v0h-25.888l-3.647 3.264h29.535c4.734-0.006 8.57-3.843 8.577-8.576v-2.105h2.679c0.889 0 1.61-0.721 1.61-1.61v0-7.418c0-0.889-0.721-1.61-1.61-1.61v0zM15.893 20.407l8.757-13.878h-16.073c-1.129 0.006-2.042 0.92-2.049 2.048v14.847c0 1.138 0.922 2.060 2.060 2.060v0h14.43l2.645-5.076z"></path>
</symbol>
<symbol id="icon-bbq" viewBox="0 0 23 32">
<title>bbq</title>
<path d="M21.915 13.824h-21.259c-0.362 0-0.656 0.294-0.656 0.656s0.294 0.656 0.656 0.656h0.789c0 3.472 3.072 6.4 7.232 7.232l-3.317 8.341c-0.040 0.097-0.063 0.21-0.063 0.328 0 0.49 0.397 0.887 0.887 0.887 0.372 0 0.69-0.229 0.822-0.553l0.002-0.006 0.581-1.467h4.48c0.376 1.233 1.503 2.114 2.837 2.114 1.635 0 2.96-1.325 2.96-2.96s-1.325-2.96-2.96-2.96c-1.493 0-2.728 1.105-2.931 2.542l-0.002 0.016h-3.888l2.405-6.059c0.219 0 0.443 0 0.661 0 0.379 0 0.747 0 1.115-0.048l1.067 3.445c0.349-0.17 0.757-0.278 1.188-0.298l0.007-0-1.024-3.291c4.229-0.811 7.365-3.733 7.365-7.259h1.067c0.362 0 0.656-0.294 0.656-0.656s-0.294-0.656-0.656-0.656v0zM14.896 27.691c0.76 0 1.376 0.616 1.376 1.376s-0.616 1.376-1.376 1.376c-0.76 0-1.376-0.616-1.376-1.376v0c-0-0.006-0-0.014-0-0.021 0-0.76 0.616-1.376 1.376-1.376 0 0 0 0 0 0v0zM8.88 20.165c-2.912-0.197-5.227-2.032-5.589-4.24l1.013 0.069c0.405 1.675 2.299 3.029 4.645 3.2z"></path>
<path d="M11.765 3.312c0.032 0.192 0.080 0.389 0.117 0.592 0.056 0.246 0.115 0.447 0.183 0.644l-0.013-0.042 0.096 0.309c0.037 0.101 0.075 0.187 0.112 0.277 0.075 0.181 0.149 0.368 0.224 0.533l0.224 0.533c0.068 0.135 0.136 0.301 0.194 0.472l0.009 0.029c0.053 0.165 0.123 0.331 0.176 0.496s0.085 0.325 0.133 0.485c0.021 0.069 0.038 0.15 0.047 0.234l0.001 0.006c0 0.080 0.027 0.16 0.043 0.235v0.117c0 0.037 0 0.075 0 0.112s0 0.149 0 0.229c0.005 0.065 0.008 0.142 0.008 0.219s-0.003 0.153-0.009 0.229l0.001-0.010c-0.011 0.293-0.055 0.571-0.129 0.836l0.006-0.026c0 0.128-0.080 0.24-0.117 0.363s-0.101 0.219-0.144 0.325l-0.155 0.283-0.155 0.24-0.139 0.192-0.112 0.139-0.101 0.112c0.022 0.002 0.048 0.003 0.075 0.003s0.052-0.001 0.078-0.003l-0.003 0c0.162-0.040 0.301-0.088 0.434-0.146l-0.018 0.007c0.085-0.037 0.181-0.091 0.283-0.144s0.203-0.128 0.315-0.208 0.219-0.181 0.331-0.288l0.16-0.176c0.056-0.059 0.108-0.124 0.156-0.192l0.004-0.006c0.219-0.289 0.4-0.623 0.526-0.983l0.008-0.025c0.062-0.171 0.114-0.374 0.147-0.584l0.002-0.019c0-0.107 0.032-0.213 0.043-0.32s0-0.107 0-0.165v-0.16c0.007-0.099 0.010-0.214 0.010-0.331s-0.004-0.232-0.011-0.346l0.001 0.016c-0.027-0.219-0.064-0.437-0.101-0.656s-0.112-0.427-0.176-0.64c-0.035-0.13-0.069-0.235-0.109-0.337l0.008 0.022-0.128-0.299-0.133-0.299-0.123-0.267c-0.085-0.181-0.176-0.357-0.261-0.533-0.043-0.085-0.091-0.176-0.128-0.261l-0.107-0.235c-0.069-0.16-0.149-0.309-0.213-0.469s-0.128-0.315-0.197-0.469-0.101-0.304-0.16-0.448-0.080-0.288-0.128-0.427-0.053-0.267-0.085-0.4-0.027-0.245-0.043-0.368c-0.003-0.049-0.005-0.107-0.005-0.165s0.002-0.116 0.005-0.173l-0 0.008v-0.155c0-0.048 0-0.091 0.032-0.139 0.025-0.097 0.054-0.181 0.089-0.261l-0.004 0.010c0.079-0.131 0.172-0.244 0.281-0.34l0.002-0.001c0.033-0.039 0.068-0.074 0.105-0.106l0.001-0.001h-0.037c-0.018-0.002-0.038-0.003-0.059-0.003s-0.041 0.001-0.061 0.003l0.003-0c-0.16 0.036-0.3 0.097-0.426 0.179l0.005-0.003c-0.098 0.064-0.184 0.135-0.261 0.213l-0 0c-0.041 0.044-0.082 0.091-0.119 0.14l-0.003 0.004-0.117 0.171-0.064 0.096-0.048 0.101-0.101 0.219c-0.047 0.124-0.096 0.286-0.137 0.452l-0.007 0.033c0 0.165-0.064 0.352-0.075 0.533s0 0.373 0 0.565 0.016 0.411 0.048 0.608z"></path>
<path d="M7.744 4.379c0.027 0.171 0.069 0.336 0.101 0.533 0.049 0.217 0.1 0.396 0.16 0.57l-0.011-0.037 0.085 0.267c0.032 0.085 0.064 0.16 0.096 0.24s0.128 0.32 0.197 0.48l0.197 0.459c0.059 0.117 0.118 0.259 0.168 0.406l0.008 0.026c0.048 0.144 0.107 0.288 0.155 0.432s0.075 0.283 0.112 0.421c0.018 0.059 0.033 0.13 0.042 0.202l0.001 0.006c0 0.069 0 0.139 0.037 0.203v0.101c0 0.032 0 0.064 0 0.101s0 0.133 0 0.197c0.005 0.057 0.007 0.124 0.007 0.192s-0.003 0.135-0.008 0.201l0.001-0.009c-0.010 0.255-0.048 0.496-0.112 0.726l0.005-0.022c0 0.112-0.069 0.208-0.101 0.315s-0.085 0.192-0.123 0.283l-0.133 0.245-0.133 0.208-0.117 0.165-0.096 0.123-0.085 0.096h0.133c0.141-0.036 0.262-0.078 0.378-0.129l-0.015 0.006 0.245-0.123 0.277-0.181c0.091-0.075 0.192-0.155 0.288-0.251l0.139-0.155c0.048-0.051 0.094-0.107 0.135-0.166l0.003-0.005c0.203-0.259 0.369-0.56 0.484-0.885l0.007-0.022c0.054-0.152 0.099-0.332 0.126-0.517l0.002-0.016c0-0.091 0.027-0.181 0.037-0.277s0-0.096 0-0.144v-0.139c0.006-0.085 0.009-0.185 0.009-0.285s-0.003-0.2-0.009-0.299l0.001 0.013c0-0.187-0.053-0.379-0.091-0.571s-0.101-0.368-0.155-0.533c-0.031-0.112-0.062-0.203-0.097-0.291l0.007 0.019-0.224-0.523-0.107-0.235c-0.075-0.155-0.155-0.309-0.229-0.464s-0.080-0.155-0.112-0.224l-0.096-0.208c-0.059-0.139-0.133-0.272-0.187-0.405s-0.107-0.272-0.171-0.405-0.091-0.261-0.139-0.389-0.069-0.251-0.112-0.368-0.048-0.235-0.075-0.347 0-0.213-0.037-0.32c-0.003-0.043-0.004-0.093-0.004-0.144s0.002-0.101 0.005-0.151l-0 0.007v-0.133c0-0.043 0-0.080 0.027-0.123 0.022-0.085 0.047-0.158 0.078-0.228l-0.004 0.009c0.057-0.119 0.126-0.22 0.209-0.31l-0.001 0.001c0.028-0.035 0.058-0.067 0.090-0.095l0.001-0.001h-0.133c-0.138 0.033-0.259 0.086-0.367 0.157l0.004-0.003c-0.084 0.056-0.157 0.118-0.224 0.186l-0 0c-0.041 0.040-0.079 0.082-0.115 0.125l-0.002 0.003-0.107 0.149-0.053 0.080-0.043 0.085-0.091 0.187c-0.040 0.108-0.082 0.249-0.117 0.392l-0.006 0.029c0 0.144-0.053 0.304-0.064 0.464s0 0.325 0 0.491 0.027 0.352 0.048 0.528z"></path>
</symbol>
<symbol id="icon-camp" viewBox="0 0 68 32">
<title>camp</title>
<path d="M8.295 10.227c1.446 2.248 2.851 4.859 4.056 7.579l0.148 0.375s0.386 1.682-2.125 0.261c1.002 1.506 2.26 2.756 3.724 3.72l0.049 0.030c0.898 0.545-0.875 3.409-3.773 1.557 0 0 1.136 3.17 5.682 4.659 1.932 0.636-2.17 2.33-7.807 1.852-5.682 0.477-9.739-1.227-7.807-1.852 4.545-1.489 5.682-4.659 5.682-4.659-2.83 1.852-4.602-1.023-3.705-1.511 1.513-0.994 2.771-2.245 3.743-3.702l0.030-0.048c-2.511 1.42-2.125-0.307-2.125-0.307 1.357-3.095 2.766-5.706 4.357-8.19l-0.141 0.235z"></path>
<path d="M68.182 32c-3.422-4.598-6.442-9.834-8.821-15.408l-0.19-0.501c-4.352-10.205-5.125-16.091-5.125-16.091h-23.136s5.909 25.67 17.045 32z"></path>
<path d="M29.92 1.864v30.080h15.261c-7.75-5.682-13.466-23.795-15.261-30.080zM13.636 31.943h15.239v-30.080c-1.784 6.284-7.5 24.398-15.239 30.080z"></path>
<path d="M26.023 27.886c-2.598-0.915-4.635-2.856-5.659-5.324l-0.023-0.063c2.898 2.091 4.67-1.136 3.773-1.795-1.529-1.179-2.791-2.622-3.736-4.271l-0.037-0.070c2.511 1.648 2.125-0.295 2.125-0.295-1.395-3.648-2.836-6.694-4.473-9.616l0.188 0.366c-1.426 2.557-2.845 5.613-4.049 8.774l-0.167 0.499s-0.386 1.943 2.125 0.295c-0.524 0.912-1.084 1.7-1.711 2.43l0.017-0.021c-0.511 0.568-0.614 0.773-0.341 1.045 0.316 0.276 0.665 0.535 1.034 0.764l0.034 0.020c0.714 0.446 1.182 1.227 1.182 2.118 0 0.279-0.046 0.547-0.13 0.797l0.005-0.018c-0.283 0.906-0.861 1.651-1.621 2.138l-0.015 0.009c0.611 0.388 1.314 0.724 2.058 0.969l0.067 0.019c1.041 0.222 1.81 1.134 1.81 2.225 0 0.121-0.009 0.24-0.028 0.356l0.002-0.013c-0.055 0.323-0.175 0.61-0.346 0.86l0.005-0.007h0.068c5.682 0.511 9.773-1.455 7.841-2.193z"></path>
</symbol>
<symbol id="icon-fan" viewBox="0 0 32 32">
<title>fan</title>
<path d="M16.173 13.274c-1.502 0-2.72 1.218-2.72 2.72s1.218 2.72 2.72 2.72c1.5 0 2.716-1.214 2.72-2.713v-0c0-0.002 0-0.004 0-0.006 0-1.502-1.218-2.72-2.72-2.72 0 0 0 0 0 0v0zM29.818 21.19c1.715-1.728 2.195-3.763 2.182-6.227 0-1.715-0.16-3.482-1.28-4.813-0.696-0.842-1.648-1.449-2.737-1.702l-0.034-0.007c-0.328-0.082-0.705-0.129-1.092-0.129-1.29 0-2.458 0.521-3.305 1.364l0-0c0.066-0.414 0.112-0.905 0.128-1.403l0-0.018c0-0.011 0-0.024 0-0.037 0-2.358-0.956-4.492-2.502-6.036l-0-0c-1.728-1.728-3.744-2.182-6.214-2.182v0c-1.715 0-3.482 0.16-4.813 1.28-0.842 0.696-1.449 1.649-1.702 2.737l-0.007 0.034c-0.084 0.33-0.132 0.71-0.132 1.1 0 1.288 0.522 2.453 1.367 3.297l0 0c-0.438-0.080-0.942-0.126-1.456-0.126-2.359 0-4.494 0.964-6.031 2.519l-0.001 0.001c-1.722 1.696-2.189 3.725-2.189 6.195 0 1.715 0.16 3.482 1.28 4.813 0.898 1.118 2.264 1.828 3.797 1.828 1.307 0 2.493-0.516 3.366-1.356l-0.002 0.002c-0.077 0.43-0.12 0.925-0.12 1.43 0 2.367 0.961 4.509 2.514 6.058l0 0c1.722 1.734 3.738 2.189 6.202 2.189 1.715 0 3.482-0.16 4.813-1.28 0.842-0.696 1.449-1.648 1.702-2.737l0.007-0.034c0.084-0.331 0.132-0.711 0.132-1.102 0-1.287-0.523-2.452-1.367-3.295l-0-0c0.444 0.082 0.954 0.129 1.476 0.129 2.35 0 4.478-0.952 6.019-2.49l-0 0zM18.726 19.418c-0.596 0.449-1.329 0.747-2.127 0.824l-0.017 0.001c0 0.004-0 0.008-0 0.012 0 0.938 0.302 1.805 0.815 2.509l-0.009-0.012c0.832 1.12 1.696 1.491 2.701 2.323 1.222 1.024 0.998 1.99 0.922 2.31-0.41 1.747-2.010 1.997-3.987 1.997-2.618 0-3.667-0.723-4.371-1.427-1.067-1.060-1.728-2.528-1.728-4.151 0-0.005 0-0.011 0-0.016v0.001c0.031-1.989 0.702-3.816 1.815-5.29l-0.016 0.023c-0.401-0.538-0.68-1.189-0.784-1.897l-0.003-0.023c-3.136 0.218-3.507 1.722-5.011 3.52-0.415 0.592-1.093 0.974-1.862 0.974-0.724 0-1.368-0.339-1.783-0.867l-0.004-0.005c-0.57-0.698-0.64-1.92-0.64-3.168 0-1.92 0.288-3.2 1.427-4.378 1.068-1.064 2.54-1.723 4.165-1.728h0.001c1.964 0.029 3.77 0.683 5.234 1.771l-0.024-0.017c0.542-0.459 1.21-0.786 1.945-0.924l0.026-0.004c0-0.004 0-0.009 0-0.014 0-0.942-0.305-1.813-0.821-2.52l0.008 0.012c-0.832-1.12-1.696-1.491-2.694-2.323-1.222-1.024-0.998-1.99-0.922-2.31 0.435-1.856 2.144-1.99 4.045-1.997s3.2 0.288 4.314 1.427c1.067 1.061 1.728 2.53 1.728 4.154 0 0.005 0 0.009 0 0.013v-0.001c-0.031 1.886-0.64 3.624-1.657 5.051l0.019-0.027c0.502 0.59 0.848 1.328 0.964 2.141l0.003 0.023c0.884-0.025 1.693-0.321 2.354-0.808l-0.011 0.008c1.984-1.466 2.387-4.147 4.634-3.616 0.542 0.121 1.003 0.413 1.334 0.815l0.003 0.004c0.966 1.184 0.832 5.12 0 6.586-1.037 1.622-2.829 2.682-4.868 2.682-0.012 0-0.024-0-0.036-0h0.002c-1.908-0.027-3.667-0.644-5.109-1.676l0.027 0.018z"></path>
</symbol>
<symbol id="icon-grip" viewBox="0 0 23 32">
<title>grip</title>
<path d="M5.179 7.237c0.085 0.283 0.165 0.581 0.245 0.869 0.214 0.871 0.473 1.621 0.792 2.338l-0.035-0.088c0.171 0.452 0.495 0.814 0.907 1.030l0.011 0.005c0.209 0.071 0.449 0.113 0.7 0.113 0.018 0 0.037-0 0.055-0.001l-0.003 0c0.031 0.002 0.066 0.003 0.103 0.003 0.277 0 0.537-0.070 0.765-0.194l-0.008 0.004c0.773-0.533 0.613-1.781 0.501-2.693 0-0.107 0-0.213-0.037-0.309l-0.128-0.96c-0.203-1.488-0.565-4.283-0.613-4.688-0.219-0.896-1.157-1.296-1.995-1.296-0.016-0-0.035-0.001-0.054-0.001-0.478 0-0.92 0.152-1.281 0.411l0.007-0.005c-0.843 0.656-0.928 1.371-0.747 2.315 0.26 1.276 0.542 2.332 0.877 3.364l-0.061-0.217z"></path>
<path d="M11.131 10.779c0.144 0.038 0.309 0.059 0.479 0.059 0.325 0 0.633-0.079 0.903-0.219l-0.011 0.005c-0.293-0.092-0.547-0.211-0.781-0.36l0.013 0.008c-0.786-0.421-1.315-1.229-1.333-2.163l-0-0.002c-0.017-0.080-0.026-0.171-0.026-0.265 0-0.35 0.134-0.67 0.353-0.909l-0.001 0.001c0.248-0.167 0.545-0.282 0.864-0.324l0.010-0.001 0.213-0.043c0.613-0.144 1.44-0.395 1.963-0.565 0.032-0.816 0-2.069 0-2.763 0-1.067-0.112-2.389-1.131-2.933-0.347-0.19-0.76-0.302-1.199-0.304h-0.001c-0.024-0.001-0.052-0.001-0.080-0.001-0.577 0-1.108 0.202-1.524 0.538l0.005-0.004c-0.44 0.399-0.722 0.964-0.747 1.596l-0 0.004c-0.002 0.035-0.004 0.076-0.004 0.117s0.001 0.082 0.004 0.123l-0-0.006c0 0.091 0.896 7.104 0.939 7.467s0.523 0.832 1.093 0.944z"></path>
<path d="M16.416 4.725c0.649-0.315 1.408-0.51 2.211-0.533l0.008-0c0.005-0 0.012-0 0.018-0 0.15 0 0.297 0.010 0.442 0.029l-0.017-0.002c0.052-0.404 0.082-0.872 0.082-1.346 0-0.072-0.001-0.145-0.002-0.217l0 0.011v-0.059c0.009-0.088 0.014-0.19 0.014-0.293 0-0.562-0.152-1.088-0.417-1.54l0.008 0.014c-0.376-0.413-0.916-0.672-1.517-0.672-0.052 0-0.103 0.002-0.154 0.006l0.007-0c-0.002 0-0.005 0-0.008 0-0.348 0-0.683 0.057-0.996 0.161l0.022-0.006c-1.179 0.395-1.557 1.067-1.6 2.805v0.043c-0.037 0.411-0.091 1.941-0.091 2.613v0c0.325-0.149 0.645-0.32 0.96-0.485s0.683-0.368 1.029-0.528z"></path>
<path d="M0.608 6.768s0 0.032 0 0.048c0.116 1.214 0.47 2.324 1.014 3.314l-0.022-0.044c0.331 0.661 1.024 2.043 2.069 2.133h0.149c0.048 0.005 0.103 0.008 0.159 0.008 0.515 0 0.971-0.257 1.246-0.649l0.003-0.005c0.1-0.229 0.158-0.496 0.158-0.777 0-0.159-0.019-0.314-0.054-0.463l0.003 0.014v-0.085c-0.117-0.581-0.592-2.133-1.413-4.576l-0.069-0.203-0.027-0.091c-0.056-0.276-0.186-0.516-0.368-0.704l0 0c-0.163-0.131-0.374-0.211-0.602-0.211-0.026 0-0.053 0.001-0.078 0.003l0.003-0c-0.209 0.005-0.408 0.038-0.597 0.095l0.016-0.004c-0.93 0.265-1.6 1.108-1.6 2.107 0 0.009 0 0.019 0 0.028v-0.001c0.001 0.005 0.001 0.010 0.001 0.016s-0 0.011-0.001 0.017l0-0.001v0.032z"></path>
<path d="M21.205 6.933l-0.059-0.112c-0.293-0.658-0.696-1.216-1.192-1.677l-0.003-0.003c-0.097-0.080-0.205-0.152-0.32-0.213l-0.011-0.005c-0.098-0.048-0.214-0.090-0.334-0.12l-0.013-0.003c-0.091-0.028-0.2-0.050-0.311-0.063l-0.009-0.001h-0.251c-0.917 0-1.909 0.533-2.779 0.965-0.368 0.192-0.72 0.373-1.067 0.507-0.155 0.064-1.291 0.437-1.339 0.453-0.325 0.091-0.656 0.176-0.987 0.256h-0.091c-0.441 0.061-0.834 0.228-1.164 0.474l0.007-0.005c-0.143 0.227-0.227 0.503-0.227 0.798 0 0.277 0.075 0.537 0.205 0.761l-0.004-0.007c0.192 0.389 0.505 0.694 0.89 0.87l0.011 0.005c0.699 0.362 1.519 0.598 2.387 0.655l0.019 0.001c0.239 0.031 0.516 0.048 0.796 0.048 0.562 0 1.107-0.070 1.628-0.202l-0.046 0.010c0.73-0.269 1.345-0.701 1.825-1.253l0.005-0.005c0.212-0.29 0.363-0.638 0.425-1.015l0.002-0.014c0-0.053 0.037-0.059 0.053-0.059s0.043 0 0.064 0.048c0.055 0.174 0.087 0.374 0.087 0.582 0 0.403-0.12 0.777-0.327 1.090l0.005-0.007c-0.304 0.581-1.504 1.067-1.755 1.136-0.055 0.012-0.103 0.028-0.148 0.050l0.004-0.002c-0.046 0.021-0.099 0.040-0.154 0.052l-0.006 0.001c0.51 0.558 1.18 0.963 1.937 1.142l0.026 0.005c0.177 0.046 0.384 0.081 0.597 0.095l0.011 0.001c0.219 0 0.347 0.069 0.352 0.155s-0.128 0.165-0.363 0.208c-0.049 0.004-0.107 0.007-0.165 0.007s-0.116-0.002-0.173-0.007l0.007 0.001c-0.366-0.003-0.718-0.059-1.050-0.162l0.026 0.007-0.112-0.032c-0.421-0.123-0.859-0.251-1.845-1.28l-0.533 0.027h-0.112c-0.283 0-0.48 0-0.672 0-0.393-0.002-0.778-0.029-1.155-0.080l0.046 0.005c-2.416 1.024-4.933 3.733-5.867 6.357l-0.053 0.149v-0.155c0.081-1.26 0.496-2.409 1.156-3.378l-0.015 0.023c0.78-1.069 1.748-1.951 2.863-2.611l0.044-0.024c-0.203 0.053-0.436 0.084-0.676 0.085h-0.001c-0.015 0-0.032 0.001-0.050 0.001-0.539 0-1.026-0.227-1.368-0.592l-0.001-0.001c-0.031 0.086-0.062 0.157-0.096 0.225l0.005-0.011c-0.31 0.684-0.987 1.151-1.773 1.151-0.044 0-0.088-0.001-0.131-0.004l0.006 0c-0.229-0.002-0.452-0.023-0.669-0.062l0.024 0.004c-0.433-0.093-0.812-0.279-1.13-0.537l0.005 0.004c-0.251 1.083-1.851 1.397-2.779 1.157-1.067-0.304-1.6-1.067-2.101-1.92-0.302-0.506-0.599-1.103-0.852-1.722l-0.033-0.092c-0.128 1.285-0.224 2.603-0.283 3.931v0.080c-0.047 0.575-0.074 1.245-0.074 1.921 0 1.073 0.068 2.13 0.199 3.167l-0.013-0.123c0.204 1.126 0.448 2.087 0.75 3.023l-0.046-0.164 0.112 0.379c0.194 0.699 0.462 1.311 0.802 1.873l-0.018-0.033 0.101 0.16c0.231 0.303 0.414 0.659 0.527 1.043l0.006 0.023c0.060 0.408 0.094 0.878 0.094 1.357 0 0.315-0.015 0.626-0.044 0.933l0.003-0.039c0 0.277-0.027 0.533-0.032 0.795 0 1.28-0.064 2.587-0.107 3.979-0.005 0.034-0.008 0.072-0.008 0.112 0 0.135 0.035 0.262 0.095 0.372l-0.002-0.004c0.128 0.149 0.491 0.117 0.491 0.117h11.899s0.357 0 0.533-0.171c0.074-0.112 0.118-0.249 0.118-0.397 0-0.064-0.008-0.125-0.024-0.184l0.001 0.005c-0.085-0.768-0.16-1.563-0.219-2.411-0.1-0.881-0.157-1.901-0.157-2.935 0-0.903 0.043-1.795 0.129-2.676l-0.009 0.112v-0.048c0.020-0.581 0.204-1.115 0.508-1.562l-0.007 0.010c0.467-0.521 0.962-0.994 1.491-1.427l0.024-0.019 0.192-0.165 0.341-0.288 0.048-0.037 0.805-0.667c1.098-0.855 2.074-1.751 2.972-2.72l0.014-0.016c0.832-0.949 1.781-2.416 1.6-3.973-0.235-1.824-1.744-5.035-1.963-5.467z"></path>
</symbol>
<symbol id="icon-phone" viewBox="0 0 32 32">
<title>phone</title>
<path d="M15.996 0c-8.831 0.004-15.989 7.164-15.989 15.996 0 8.835 7.162 15.996 15.996 15.996s15.996-7.162 15.996-15.996v0c0-8.835-7.162-15.996-15.996-15.996-0.003 0-0.005 0-0.008 0h0zM20.248 25.723c-1.365-0.105-10.237-2.25-13.971-12.794-0.75-2.25 0.18-5.782 2.707-6.577s3.885 2.76 4.26 5.032l-2.25 2.25s-0.060 1.402 3 4.5 4.5 3 4.5 3l2.602-2.602c1.642 0.345 4.942 2.445 4.942 2.445-0.45 3.022-2.55 5.092-5.79 4.747z"></path>
</symbol>
</defs>
</svg>
