<svg height="0" style="display:none;" overflow="hidden" width="0" xmlns="http://www.w3.org/2000/svg"><defs><symbol id="icon-light" viewBox="0 0 29 32"><path d="m14.107 4.491c.157.073.34.115.533.115s.377-.042.541-.118l-.008.003c.645-.277.875-.827.875-2.133 0-1.733-.363-2.336-1.419-2.347s-1.419.619-1.419 2.347c.027 1.301.251 1.856.896 2.133z"/><path d="m23.851 3.067c-.827-.651-1.488-.4-2.576.939-.821 1.019-.992 1.6-.667 2.213.17.337.474.586.839.681l.009.002c.677.192 1.2-.096 2.021-1.12 1.088-1.344 1.184-2.048.373-2.715z"/><path d="m29.088 11.232c-.235-1.024-.907-1.253-2.597-.885-1.28.277-1.776.613-1.904 1.307-.02.086-.032.185-.032.286 0 .294.098.566.264.784l-.002-.003c.405.571.997.677 2.277.4 1.707-.373 2.203-.853 1.995-1.888z"/><path d="m7.675 6.901c.379-.093.687-.343.855-.675l.003-.007c.331-.619.16-1.195-.667-2.213-1.067-1.349-1.749-1.6-2.576-.939s-.715 1.371.373 2.715c.811 1.024 1.333 1.312 2.011 1.12z"/><path d="m2.667 10.347c-1.717-.368-2.384-.144-2.624.885s.304 1.515 1.995 1.883c1.28.277 1.867.176 2.277-.4.163-.214.261-.486.261-.78 0-.101-.012-.2-.034-.295l.002.009c-.128-.688-.624-1.024-1.877-1.301z"/><path d="m14.651 28.587c-2.069 0-2.469.037-2.667.229-.155.144-.252.349-.252.576s.097.432.252.576h.001c.256.256.459.277 2.592.277h.133c2.133 0 2.341 0 2.592-.277.155-.144.252-.349.252-.576s-.097-.432-.252-.576h-.001c-.181-.192-.581-.229-2.651-.229z"/><path d="m14.651 30.933c-1.211 0-1.552.043-1.552.187 0 .229.379.581.832.773.216.068.465.108.723.108s.506-.039.74-.112l-.018.005c.453-.192.832-.533.832-.773-.005-.144-.347-.187-1.557-.187z"/><path d="m17.733 26.107c-.712-.101-1.535-.158-2.372-.158-.25 0-.499.005-.746.015l.035-.001c-.212-.009-.461-.014-.711-.014-.836 0-1.659.057-2.465.169l.093-.011c-.405.219-.379 1.285.043 1.6.261.187.715.213 3.04.181s2.779 0 3.04-.181c.443-.32.443-1.387.043-1.6z"/><path d="m20.955 9.6c-1.593-1.557-3.776-2.518-6.182-2.518-.043 0-.086 0-.128.001h.006c-.036-.001-.079-.001-.122-.001-2.407 0-4.589.961-6.184 2.52l.002-.002c-1.33 1.232-2.16 2.988-2.16 4.938 0 .21.01.419.029.624l-.002-.026c.251 4.619 3.733 5.419 4.517 8.069.095.46.303.861.594 1.186l-.002-.002c.4.277 6.229.283 6.629 0 .289-.323.497-.724.589-1.168l.003-.016c.784-2.64 4.267-3.461 4.517-8.069.018-.186.029-.402.029-.62 0-1.938-.82-3.685-2.132-4.912l-.004-.004zm-1.398 5.424c-.056-1.329-.662-2.506-1.594-3.318l-.006-.005c-1.093-.869.448-2.389 1.531-1.531 1.429 1.131 2.133 3.083 2.24 4.853.085 1.392-2.08 1.387-2.171 0z"/></symbol><symbol id="icon-battery" viewBox="0 0 68 32"><path d="m56.718 23.423v-14.846c-.006-1.129-.92-2.042-2.048-2.049h-15.849l-2.352 3.985h12.64l-16.726 14.97h22.286c1.133-.006 2.049-.926 2.049-2.06zm9.207-12.741h-2.679v-2.105c-.006-4.734-3.843-8.57-8.576-8.577h-46.093c-4.734.006-8.57 3.843-8.577 8.576v14.847c.006 4.734 3.843 8.57 8.576 8.577h11.031l1.7-3.264h-12.73c-2.934 0-5.313-2.379-5.313-5.313v0-14.846c0-2.934 2.379-5.313 5.313-5.313v0h20.688l-9.432 14.97h9.432l-6.979 13.372 21.127-18.921h-10.772l5.628-9.421h16.4c2.934 0 5.313 2.379 5.313 5.313v0 14.846c0 2.934-2.379 5.313-5.313 5.313v0h-25.888l-3.647 3.264h29.535c4.734-.006 8.57-3.843 8.577-8.576v-2.105h2.679c.889 0 1.61-.721 1.61-1.61v0-7.418c0-.889-.721-1.61-1.61-1.61v0zm-50.032 9.725 8.757-13.878h-16.073c-1.129.006-2.042.92-2.049 2.048v14.847c0 1.138.922 2.06 2.06 2.06v0h14.43l2.645-5.076z"/></symbol><symbol id="icon-bbq" viewBox="0 0 23 32"><path d="m21.915 13.824h-21.259c-.362 0-.656.294-.656.656s.294.656.656.656h.789c0 3.472 3.072 6.4 7.232 7.232l-3.317 8.341c-.04.097-.063.21-.063.328 0 .49.397.887.887.887.372 0 .69-.229.822-.553l.002-.006.581-1.467h4.48c.376 1.233 1.503 2.114 2.837 2.114 1.635 0 2.96-1.325 2.96-2.96s-1.325-2.96-2.96-2.96c-1.493 0-2.728 1.105-2.931 2.542l-.002.016h-3.888l2.405-6.059h.661c.379 0 .747 0 1.115-.048l1.067 3.445c.349-.17.757-.278 1.188-.298h.007l-1.024-3.291c4.229-.811 7.365-3.733 7.365-7.259h1.067c.362 0 .656-.294.656-.656s-.294-.656-.656-.656v0zm-7.019 13.867c.76 0 1.376.616 1.376 1.376s-.616 1.376-1.376 1.376-1.376-.616-1.376-1.376v0c0-.006 0-.014 0-.021 0-.76.616-1.376 1.376-1.376v0 0zm-6.016-7.526c-2.912-.197-5.227-2.032-5.589-4.24l1.013.069c.405 1.675 2.299 3.029 4.645 3.2z"/><path d="m11.765 3.312c.032.192.08.389.117.592.056.246.115.447.183.644l-.013-.042.096.309c.037.101.075.187.112.277.075.181.149.368.224.533l.224.533c.068.135.136.301.194.472l.009.029c.053.165.123.331.176.496s.085.325.133.485c.021.069.038.15.047.234l.001.006c0 .08.027.16.043.235v.117.112s0 .149 0 .229c.005.065.008.142.008.219s-.003.153-.009.229l.001-.01c-.011.293-.055.571-.129.836l.006-.026c0 .128-.08.24-.117.363s-.101.219-.144.325l-.155.283-.155.24-.139.192-.112.139-.101.112c.022.002.048.003.075.003s.052-.001.078-.003h-.003c.162-.04.301-.088.434-.146l-.018.007c.085-.037.181-.091.283-.144s.203-.128.315-.208.219-.181.331-.288l.16-.176c.056-.059.108-.124.156-.192l.004-.006c.219-.289.4-.623.526-.983l.008-.025c.062-.171.114-.374.147-.584l.002-.019c0-.107.032-.213.043-.32s0-.107 0-.165v-.16c.007-.099.01-.214.01-.331s-.004-.232-.011-.346l.001.016c-.027-.219-.064-.437-.101-.656s-.112-.427-.176-.64c-.035-.13-.069-.235-.109-.337l.008.022-.128-.299-.133-.299-.123-.267c-.085-.181-.176-.357-.261-.533-.043-.085-.091-.176-.128-.261l-.107-.235c-.069-.16-.149-.309-.213-.469s-.128-.315-.197-.469-.101-.304-.16-.448-.08-.288-.128-.427-.053-.267-.085-.4-.027-.245-.043-.368c-.003-.049-.005-.107-.005-.165s.002-.116.005-.173v.008-.155c0-.048 0-.091.032-.139.025-.097.054-.181.089-.261l-.004.01c.079-.131.172-.244.281-.34l.002-.001c.033-.039.068-.074.105-.106l.001-.001h-.037c-.018-.002-.038-.003-.059-.003s-.041.001-.061.003h.003c-.16.036-.3.097-.426.179l.005-.003c-.098.064-.184.135-.261.213l0 0c-.041.044-.082.091-.119.14l-.003.004-.117.171-.064.096-.048.101-.101.219c-.047.124-.096.286-.137.452l-.007.033c0 .165-.064.352-.075.533s0 .373 0 .565.016.411.048.608z"/><path d="m7.744 4.379c.027.171.069.336.101.533.049.217.1.396.16.57l-.011-.037.085.267c.032.085.064.16.096.24s.128.32.197.48l.197.459c.059.117.118.259.168.406l.008.026c.048.144.107.288.155.432s.075.283.112.421c.018.059.033.13.042.202l.001.006c0 .069 0 .139.037.203v.101.101s0 .133 0 .197c.005.057.007.124.007.192s-.003.135-.008.201l.001-.009c-.01.255-.048.496-.112.726l.005-.022c0 .112-.069.208-.101.315s-.085.192-.123.283l-.133.245-.133.208-.117.165-.096.123-.085.096h.133c.141-.036.262-.078.378-.129l-.015.006.245-.123.277-.181c.091-.075.192-.155.288-.251l.139-.155c.048-.051.094-.107.135-.166l.003-.005c.203-.259.369-.56.484-.885l.007-.022c.054-.152.099-.332.126-.517l.002-.016c0-.091.027-.181.037-.277s0-.096 0-.144v-.139c.006-.085.009-.185.009-.285s-.003-.2-.009-.299l.001.013c0-.187-.053-.379-.091-.571s-.101-.368-.155-.533c-.031-.112-.062-.203-.097-.291l.007.019-.224-.523-.107-.235c-.075-.155-.155-.309-.229-.464s-.08-.155-.112-.224l-.096-.208c-.059-.139-.133-.272-.187-.405s-.107-.272-.171-.405-.091-.261-.139-.389-.069-.251-.112-.368-.048-.235-.075-.347 0-.213-.037-.32c-.003-.043-.004-.093-.004-.144s.002-.101.005-.151v.007-.133c0-.043 0-.08.027-.123.022-.085.047-.158.078-.228l-.004.009c.057-.119.126-.22.209-.31l-.001.001c.028-.035.058-.067.09-.095l.001-.001h-.133c-.138.033-.259.086-.367.157l.004-.003c-.084.056-.157.118-.224.186l0 0c-.041.04-.079.082-.115.125l-.002.003-.107.149-.053.08-.043.085-.091.187c-.04.108-.082.249-.117.392l-.006.029c0 .144-.053.304-.064.464s0 .325 0 .491.027.352.048.528z"/></symbol><symbol id="icon-camp" viewBox="0 0 68 32"><path d="m8.295 10.227c1.446 2.248 2.851 4.859 4.056 7.579l.148.375s.386 1.682-2.125.261c1.002 1.506 2.26 2.756 3.724 3.72l.049.03c.898.545-.875 3.409-3.773 1.557 0 0 1.136 3.17 5.682 4.659 1.932.636-2.17 2.33-7.807 1.852-5.682.477-9.739-1.227-7.807-1.852 4.545-1.489 5.682-4.659 5.682-4.659-2.83 1.852-4.602-1.023-3.705-1.511 1.513-.994 2.771-2.245 3.743-3.702l.03-.048c-2.511 1.42-2.125-.307-2.125-.307 1.357-3.095 2.766-5.706 4.357-8.19l-.141.235z"/><path d="m68.182 32c-3.422-4.598-6.442-9.834-8.821-15.408l-.19-.501c-4.352-10.205-5.125-16.091-5.125-16.091h-23.136s5.909 25.67 17.045 32z"/><path d="m29.92 1.864v30.08h15.261c-7.75-5.682-13.466-23.795-15.261-30.08zm-16.284 30.079h15.239v-30.08c-1.784 6.284-7.5 24.398-15.239 30.08z"/><path d="m26.023 27.886c-2.598-.915-4.635-2.856-5.659-5.324l-.023-.063c2.898 2.091 4.67-1.136 3.773-1.795-1.529-1.179-2.791-2.622-3.736-4.271l-.037-.07c2.511 1.648 2.125-.295 2.125-.295-1.395-3.648-2.836-6.694-4.473-9.616l.188.366c-1.426 2.557-2.845 5.613-4.049 8.774l-.167.499s-.386 1.943 2.125.295c-.524.912-1.084 1.7-1.711 2.43l.017-.021c-.511.568-.614.773-.341 1.045.316.276.665.535 1.034.764l.034.02c.714.446 1.182 1.227 1.182 2.118 0 .279-.046.547-.13.797l.005-.018c-.283.906-.861 1.651-1.621 2.138l-.015.009c.611.388 1.314.724 2.058.969l.067.019c1.041.222 1.81 1.134 1.81 2.225 0 .121-.009.24-.028.356l.002-.013c-.055.323-.175.61-.346.86l.005-.007h.068c5.682.511 9.773-1.455 7.841-2.193z"/></symbol><symbol id="icon-fan" viewBox="0 0 32 32"><path d="m16.173 13.274c-1.502 0-2.72 1.218-2.72 2.72s1.218 2.72 2.72 2.72c1.5 0 2.716-1.214 2.72-2.713v0c0-.002 0-.004 0-.006 0-1.502-1.218-2.72-2.72-2.72v0 0zm13.645 7.916c1.715-1.728 2.195-3.763 2.182-6.227 0-1.715-.16-3.482-1.28-4.813-.696-.842-1.648-1.449-2.737-1.702l-.034-.007c-.328-.082-.705-.129-1.092-.129-1.29 0-2.458.521-3.305 1.364l0 0c .066-.414.112-.905.128-1.403v-.018c0-.011 0-.024 0-.037 0-2.358-.956-4.492-2.502-6.036l0 0c-1.728-1.728-3.744-2.182-6.214-2.182v0c-1.715 0-3.482.16-4.813 1.28-.842.696-1.449 1.649-1.702 2.737l-.007.034c-.084.33-.132.71-.132 1.1 0 1.288.522 2.453 1.367 3.297l0 0c-.438-.08-.942-.126-1.456-.126-2.359 0-4.494.964-6.031 2.519l-.001.001c-1.722 1.696-2.189 3.725-2.189 6.195 0 1.715.16 3.482 1.28 4.813.898 1.118 2.264 1.828 3.797 1.828 1.307 0 2.493-.516 3.366-1.356l-.002.002c-.077.43-.12.925-.12 1.43 0 2.367.961 4.509 2.514 6.058l0 0c1.722 1.734 3.738 2.189 6.202 2.189 1.715 0 3.482-.16 4.813-1.28.842-.696 1.449-1.648 1.702-2.737l.007-.034c.084-.331.132-.711.132-1.102 0-1.287-.523-2.452-1.367-3.295l0 0c .444.082.954.129 1.476.129 2.35 0 4.478-.952 6.019-2.49l0 0zm-11.092-1.772c-.596.449-1.329.747-2.127.824l-.017.001v.012c0 .938.302 1.805.815 2.509l-.009-.012c.832 1.12 1.696 1.491 2.701 2.323 1.222 1.024.998 1.99.922 2.31-.41 1.747-2.01 1.997-3.987 1.997-2.618 0-3.667-.723-4.371-1.427-1.067-1.06-1.728-2.528-1.728-4.151 0-.005 0-.011 0-.016v.001c.031-1.989.702-3.816 1.815-5.29l-.016.023c-.401-.538-.68-1.189-.784-1.897l-.003-.023c-3.136.218-3.507 1.722-5.011 3.52-.415.592-1.093.974-1.862.974-.724 0-1.368-.339-1.783-.867l-.004-.005c-.57-.698-.64-1.92-.64-3.168 0-1.92.288-3.2 1.427-4.378 1.068-1.064 2.54-1.723 4.165-1.728h.001c1.964.029 3.77.683 5.234 1.771l-.024-.017c.542-.459 1.21-.786 1.945-.924l.026-.004c0-.004 0-.009 0-.014 0-.942-.305-1.813-.821-2.52l.008.012c-.832-1.12-1.696-1.491-2.694-2.323-1.222-1.024-.998-1.99-.922-2.31.435-1.856 2.144-1.99 4.045-1.997s3.2.288 4.314 1.427c1.067 1.061 1.728 2.53 1.728 4.154v.013-.001c-.031 1.886-.64 3.624-1.657 5.051l.019-.027c.502.59.848 1.328.964 2.141l.003.023c.884-.025 1.693-.321 2.354-.808l-.011.008c1.984-1.466 2.387-4.147 4.634-3.616.542.121 1.003.413 1.334.815l.003.004c.966 1.184.832 5.12 0 6.586-1.037 1.622-2.829 2.682-4.868 2.682-.012 0-.024 0-.036 0h .002c-1.908-.027-3.667-.644-5.109-1.676l.027.018z"/></symbol><symbol id="icon-grip" viewBox="0 0 23 32"><path d="m5.179 7.237c.085.283.165.581.245.869.214.871.473 1.621.792 2.338l-.035-.088c.171.452.495.814.907 1.03l.011.005c.209.071.449.113.7.113.018 0 .037 0 .055-.001h-.003c.031.002.066.003.103.003.277 0 .537-.07.765-.194l-.008.004c.773-.533.613-1.781.501-2.693 0-.107 0-.213-.037-.309l-.128-.96c-.203-1.488-.565-4.283-.613-4.688-.219-.896-1.157-1.296-1.995-1.296-.016 0-.035-.001-.054-.001-.478 0-.92.152-1.281.411l.007-.005c-.843.656-.928 1.371-.747 2.315.26 1.276.542 2.332.877 3.364l-.061-.217z"/><path d="m11.131 10.779c.144.038.309.059.479.059.325 0 .633-.079.903-.219l-.011.005c-.293-.092-.547-.211-.781-.36l.013.008c-.786-.421-1.315-1.229-1.333-2.163v-.002c-.017-.08-.026-.171-.026-.265 0-.35.134-.67.353-.909l-.001.001c.248-.167.545-.282.864-.324l.01-.001.213-.043c.613-.144 1.44-.395 1.963-.565.032-.816 0-2.069 0-2.763 0-1.067-.112-2.389-1.131-2.933-.347-.19-.76-.302-1.199-.304h-.001c-.024-.001-.052-.001-.08-.001-.577 0-1.108.202-1.524.538l.005-.004c-.44.399-.722.964-.747 1.596v.004c-.002.035-.004.076-.004.117s.001.082.004.123v-.006c0 .091.896 7.104.939 7.467s.523.832 1.093.944z"/><path d="m16.416 4.725c.649-.315 1.408-.51 2.211-.533h.008.018c.15 0 .297.01.442.029l-.017-.002c.052-.404.082-.872.082-1.346 0-.072-.001-.145-.002-.217v.011-.059c.009-.088.014-.19.014-.293 0-.562-.152-1.088-.417-1.54l.008.014c-.376-.413-.916-.672-1.517-.672-.052 0-.103.002-.154.006h.007c-.002 0-.005 0-.008 0-.348 0-.683.057-.996.161l.022-.006c-1.179.395-1.557 1.067-1.6 2.805v.043c-.037.411-.091 1.941-.091 2.613v0c .325-.149.645-.32.96-.485s.683-.368 1.029-.528z"/><path d="m .608 6.768s0 .032 0 .048c.116 1.214.47 2.324 1.014 3.314l-.022-.044c.331.661 1.024 2.043 2.069 2.133h.149c.048.005.103.008.159.008.515 0 .971-.257 1.246-.649l.003-.005c.1-.229.158-.496.158-.777 0-.159-.019-.314-.054-.463l.003.014v-.085c-.117-.581-.592-2.133-1.413-4.576l-.069-.203-.027-.091c-.056-.276-.186-.516-.368-.704l0 0c-.163-.131-.374-.211-.602-.211-.026 0-.053.001-.078.003h.003c-.209.005-.408.038-.597.095l.016-.004c-.93.265-1.6 1.108-1.6 2.107v.028-.001c.001.005.001.01.001.016s0 .011-.001.017v-.001.032z"/><path d="m21.205 6.933-.059-.112c-.293-.658-.696-1.216-1.192-1.677l-.003-.003c-.097-.08-.205-.152-.32-.213l-.011-.005c-.098-.048-.214-.09-.334-.12l-.013-.003c-.091-.028-.2-.05-.311-.063l-.009-.001h-.251c-.917 0-1.909.533-2.779.965-.368.192-.72.373-1.067.507-.155.064-1.291.437-1.339.453-.325.091-.656.176-.987.256h-.091c-.441.061-.834.228-1.164.474l.007-.005c-.143.227-.227.503-.227.798 0 .277.075.537.205.761l-.004-.007c.192.389.505.694.89.87l.011.005c.699.362 1.519.598 2.387.655l.019.001c.239.031.516.048.796.048.562 0 1.107-.07 1.628-.202l-.046.01c.73-.269 1.345-.701 1.825-1.253l.005-.005c.212-.29.363-.638.425-1.015l.002-.014c0-.053.037-.059.053-.059s.043 0 .064.048c.055.174.087.374.087.582 0 .403-.12.777-.327 1.09l.005-.007c-.304.581-1.504 1.067-1.755 1.136-.055.012-.103.028-.148.05l.004-.002c-.046.021-.099.04-.154.052l-.006.001c.51.558 1.18.963 1.937 1.142l.026.005c.177.046.384.081.597.095l.011.001c.219 0 .347.069.352.155s-.128.165-.363.208c-.049.004-.107.007-.165.007s-.116-.002-.173-.007l.007.001c-.366-.003-.718-.059-1.05-.162l.026.007-.112-.032c-.421-.123-.859-.251-1.845-1.28l-.533.027h-.112c-.283 0-.48 0-.672 0-.393-.002-.778-.029-1.155-.08l.046.005c-2.416 1.024-4.933 3.733-5.867 6.357l-.053.149v-.155c.081-1.26.496-2.409 1.156-3.378l-.015.023c.78-1.069 1.748-1.951 2.863-2.611l.044-.024c-.203.053-.436.084-.676.085h-.001c-.015 0-.032.001-.05.001-.539 0-1.026-.227-1.368-.592l-.001-.001c-.031.086-.062.157-.096.225l.005-.011c-.31.684-.987 1.151-1.773 1.151-.044 0-.088-.001-.131-.004h.006c-.229-.002-.452-.023-.669-.062l.024.004c-.433-.093-.812-.279-1.13-.537l.005.004c-.251 1.083-1.851 1.397-2.779 1.157-1.067-.304-1.6-1.067-2.101-1.92-.302-.506-.599-1.103-.852-1.722l-.033-.092c-.128 1.285-.224 2.603-.283 3.931v.08c-.047.575-.074 1.245-.074 1.921 0 1.073.068 2.13.199 3.167l-.013-.123c.204 1.126.448 2.087.75 3.023l-.046-.164.112.379c.194.699.462 1.311.802 1.873l-.018-.033.101.16c.231.303.414.659.527 1.043l.006.023c.06.408.094.878.094 1.357 0 .315-.015.626-.044.933l.003-.039c0 .277-.027.533-.032.795 0 1.28-.064 2.587-.107 3.979-.005.034-.008.072-.008.112 0 .135.035.262.095.372l-.002-.004c.128.149.491.117.491.117h11.899s.357 0 .533-.171c.074-.112.118-.249.118-.397 0-.064-.008-.125-.024-.184l.001.005c-.085-.768-.16-1.563-.219-2.411-.1-.881-.157-1.901-.157-2.935 0-.903.043-1.795.129-2.676l-.009.112v-.048c.02-.581.204-1.115.508-1.562l-.007.01c.467-.521.962-.994 1.491-1.427l.024-.019.192-.165.341-.288.048-.037.805-.667c1.098-.855 2.074-1.751 2.972-2.72l.014-.016c.832-.949 1.781-2.416 1.6-3.973-.235-1.824-1.744-5.035-1.963-5.467z"/></symbol><symbol id="icon-phone" viewBox="0 0 32 32"><path d="m15.996 0c-8.831.004-15.989 7.164-15.989 15.996 0 8.835 7.162 15.996 15.996 15.996s15.996-7.162 15.996-15.996v0c0-8.835-7.162-15.996-15.996-15.996-.003 0-.005 0-.008 0h0zm4.252 25.723c-1.365-.105-10.237-2.25-13.971-12.794-.75-2.25.18-5.782 2.707-6.577s3.885 2.76 4.26 5.032l-2.25 2.25s-.06 1.402 3 4.5 4.5 3 4.5 3l2.602-2.602c1.642.345 4.942 2.445 4.942 2.445-.45 3.022-2.55 5.092-5.79 4.747z"/></symbol></defs></svg>