<svg viewBox="0 0 101 101" xmlns="http://www.w3.org/2000/svg"><path d="m100.45 48.52c0-.41 0-.82-.06-1.23v0h0a50 50 0 0 0 -99.77 0h0v0c0 .41 0 .82-.06 1.23 0 .66-.05 1.31-.05 2a50 50 0 1 0 100 0c-.01-.68-.03-1.34-.06-2z" fill="#fff" opacity=".5"/><path d="m50.5 101a50.56 50.56 0 0 1 -50.5-50.5c0-.67 0-1.34.05-2 0-.41 0-.82.06-1.23a50.49 50.49 0 0 1 100.77 0c0 .43 0 .84.06 1.25h0c0 .66.05 1.33.05 2a50.56 50.56 0 0 1 -50.49 50.48zm0-100a49.57 49.57 0 0 0 -49.39 46.31c0 .42 0 .83-.06 1.23v2a49.5 49.5 0 0 0 99 0c0-.66 0-1.31 0-2 0-.41 0-.81-.06-1.22a49.57 49.57 0 0 0 -49.49-46.32z"/><path d="m80.32 52.73a89.21 89.21 0 0 1 -.59 9.53s-.58 4.06-2.34 5.85a8.43 8.43 0 0 1 -5.9 2.5c-8.24.6-20.62.61-20.62.61s-15.32-.14-20-.59c-1.31-.25-4.25-.17-6.5-2.52-1.8-1.79-2.37-5.85-2.37-5.85a89.1 89.1 0 0 1 -.59-9.53v-4.47a89.1 89.1 0 0 1  .59-9.54s.57-4.06 2.34-5.85a8.43 8.43 0 0 1 5.9-2.5c8.24-.6 20.61-.6 20.61-.6h0s12.37 0 20.61.6a8.43 8.43 0 0 1 5.9 2.5c1.77 1.79 2.34 5.85 2.34 5.85a89.21 89.21 0 0 1  .59 9.54z" fill="#d93f2c"/><path d="m44.78 58.14 15.92-8.25-15.92-8.3z" fill="#fff"/></svg>