<svg xmlns="http://www.w3.org/2000/svg" viewBox="0 0 101 101"><defs><style>.cls-1{opacity:0.5;}.cls-2{fill:#fff;}.cls-3{fill:#d93f2c;}</style></defs><title>youtube</title><g id="Layer_2" data-name="Layer 2"><g id="Graphics"><g class="cls-1"><path class="cls-2" d="M100.45,48.52c0-.41,0-.82-.06-1.23v0h0a50,50,0,0,0-99.77,0h0v0c0,.41,0,.82-.06,1.23,0,.66-.05,1.31-.05,2a50,50,0,1,0,100,0C100.5,49.84,100.48,49.18,100.45,48.52Z"/></g><path d="M50.5,101A50.56,50.56,0,0,1,0,50.5c0-.67,0-1.34.05-2,0-.41,0-.82.06-1.23a50.49,50.49,0,0,1,100.77,0c0,.43,0,.84.06,1.25h0c0,.66.05,1.33.05,2A50.56,50.56,0,0,1,50.5,101Zm0-100A49.57,49.57,0,0,0,1.11,47.31c0,.42,0,.83-.06,1.23,0,.65,0,1.3,0,2a49.5,49.5,0,0,0,99,0c0-.66,0-1.31,0-2,0-.41,0-.81-.06-1.22A49.57,49.57,0,0,0,50.5,1Z"/><path class="cls-3" d="M80.32,52.73a89.21,89.21,0,0,1-.59,9.53s-.58,4.06-2.34,5.85a8.43,8.43,0,0,1-5.9,2.5c-8.24.6-20.62.61-20.62.61s-15.32-.14-20-.59c-1.31-.25-4.25-.17-6.5-2.52C22.57,66.32,22,62.26,22,62.26a89.1,89.1,0,0,1-.59-9.53V48.26A89.1,89.1,0,0,1,22,38.72s.57-4.06,2.34-5.85a8.43,8.43,0,0,1,5.9-2.5c8.24-.6,20.61-.6,20.61-.6h0s12.37,0,20.61.6a8.43,8.43,0,0,1,5.9,2.5c1.77,1.79,2.34,5.85,2.34,5.85a89.21,89.21,0,0,1,.59,9.54Z"/><polygon class="cls-2" points="44.78 58.14 60.7 49.89 44.78 41.59 44.78 58.14"/></g></g></svg>